<svg width="67" height="59" viewBox="0 0 67 59" fill="none" xmlns="http://www.w3.org/2000/svg">
<g clip-path="url(#clip0_1305_141)">
<path d="M50.6585 25.2219L34.3798 18.8192C33.7979 18.586 33.1519 18.586 32.5693 18.8192L16.2906 25.2219C15.9752 25.3443 15.722 25.5931 15.5897 25.9103C15.4575 26.2281 15.4575 26.5864 15.5897 26.9042C15.722 27.222 15.9752 27.4709 16.2906 27.5926L20.6421 29.3297V37.8115C20.6421 38.2835 20.7711 38.7453 21.0144 39.1463C21.2577 39.5473 21.6055 39.8712 22.0181 40.0808C25.596 41.8246 29.5105 42.726 33.4739 42.7178C35.2876 42.7138 37.0961 42.5096 38.8668 42.1093V42.7435H38.4331C38.1282 42.7408 37.834 42.8538 37.6052 43.0593C37.3764 43.2655 37.2296 43.5495 37.1933 43.8592L36.4368 50.1983C36.3938 50.5601 36.5056 50.9232 36.743 51.195C36.9804 51.4668 37.3202 51.621 37.6766 51.6183H42.6358C42.9922 51.621 43.3321 51.4668 43.5695 51.195C43.8068 50.9232 43.9186 50.5601 43.8756 50.1983L43.1192 43.8592C43.0828 43.5502 42.936 43.2655 42.7072 43.0593C42.4784 42.8538 42.1835 42.7408 41.8794 42.7435H41.396V41.4757C42.6451 41.0646 43.8597 40.5521 45.0288 39.9415C45.4288 39.7265 45.7641 39.4039 45.9981 39.0084C46.2322 38.6128 46.3552 38.1598 46.3559 37.6973V29.3297L50.7074 27.6183C51.0228 27.4959 51.276 27.247 51.4083 26.9299C51.5405 26.6121 51.5405 26.2537 51.4083 25.9359C51.276 25.6181 51.0228 25.3693 50.7074 25.2476L50.6585 25.2219ZM39.0169 49.0826L39.4758 45.2792H40.7156L41.1745 49.0826H39.0176H39.0169ZM33.4752 40.2079C29.892 40.2147 26.3538 39.3958 23.1231 37.8115V30.2803L32.5706 33.9952C33.1552 34.2157 33.7966 34.2157 34.3811 33.9952L38.8695 32.2331V39.4722C37.1053 39.9246 35.2949 40.1633 33.4765 40.1822V40.2079H33.4752ZM43.8273 37.6723C43.0259 38.0969 42.1974 38.4654 41.3477 38.7751V31.2567L43.8273 30.2803V37.6723ZM40.2938 28.9496L34.0948 25.3112C33.8098 25.1259 33.4633 25.0671 33.1347 25.1496C32.8067 25.2314 32.5257 25.4471 32.3564 25.7466C32.1878 26.0455 32.1448 26.4025 32.2394 26.7338C32.3333 27.0658 32.5561 27.3437 32.8556 27.504L37.3063 30.1154L33.4752 31.6239L20.1971 26.4133L33.4752 21.1899L46.7407 26.4005L40.2944 28.949L40.2938 28.9496Z" fill="#BB895B"/>
<path d="M65.7092 56.4645H61.9898V16.8787L63.8869 17.4744C64.0059 17.494 64.1276 17.494 64.2466 17.4744C64.5217 17.4866 64.7928 17.4041 65.0176 17.2411C65.2418 17.0782 65.4071 16.8435 65.4864 16.5737L66.949 11.781C67.0423 11.4592 67.0066 11.1123 66.8499 10.8175C66.6964 10.5193 66.4333 10.2955 66.1185 10.1961L33.8838 0.0548731C33.6491 -0.0174772 33.3991 -0.0174772 33.1644 0.0548731L0.929635 10.1974C0.614891 10.2968 0.351724 10.5207 0.198319 10.8188C0.0416089 11.1137 0.00590271 11.4605 0.0991355 11.7824L1.56177 16.6251C1.65632 16.9483 1.8732 17.2202 2.16414 17.3797C2.45508 17.5393 2.79627 17.5731 3.11168 17.4751L4.95914 16.8794V56.4651H1.23975C0.796728 56.4651 0.38743 56.7065 0.165919 57.0994C-0.0555913 57.4916 -0.0555913 57.975 0.165919 58.3672C0.38743 58.7594 0.796728 59.0015 1.23975 59.0015H65.7092C66.1523 59.0015 66.5616 58.7601 66.7831 58.3672C67.0046 57.975 67.0046 57.4916 66.7831 57.0994C66.5616 56.7072 66.1523 56.4651 65.7092 56.4651V56.4645ZM2.78966 12.251L33.4745 2.60269L64.1593 12.251L63.428 14.6723L33.8342 5.36687C33.5995 5.29926 33.3502 5.29926 33.1148 5.36687L3.52098 14.6723L2.78966 12.251ZM7.43874 56.4645V16.093L33.4745 7.91536L59.5103 16.093V56.4645H7.43874Z" fill="#BB895B"/>
</g>
<defs>
<clipPath id="clip0_1305_141">
<rect width="67" height="59" fill="white"/>
</clipPath>
</defs>
</svg>
