<svg width="134" height="116" viewBox="0 0 134 116" fill="none" xmlns="http://www.w3.org/2000/svg">
<path d="M28.9318 0C20.5568 0 13.7045 6.86842 13.7045 15.2632C13.7045 23.6579 20.5568 30.5263 28.9318 30.5263C37.3068 30.5263 44.1591 23.6579 44.1591 15.2632C44.1591 6.86842 37.3068 0 28.9318 0ZM105.068 0C96.6932 0 89.8409 6.86842 89.8409 15.2632C89.8409 23.6579 96.6932 30.5263 105.068 30.5263C113.443 30.5263 120.295 23.6579 120.295 15.2632C120.295 6.86842 113.443 0 105.068 0ZM28.9318 6.10526C34.0166 6.10526 38.0682 10.1664 38.0682 15.2632C38.0682 20.36 34.0166 24.4211 28.9318 24.4211C23.847 24.4211 19.7955 20.36 19.7955 15.2632C19.7955 10.1664 23.847 6.10526 28.9318 6.10526ZM105.068 6.10526C110.153 6.10526 114.205 10.1664 114.205 15.2632C114.205 20.36 110.153 24.4211 105.068 24.4211C99.9834 24.4211 95.9318 20.36 95.9318 15.2632C95.9318 10.1664 99.9834 6.10526 105.068 6.10526ZM28.9318 36.6316C12.9976 36.6316 0 49.3327 0 65.1137V88.5263C0 90.2162 1.35958 91.5789 3.04545 91.5789H34.778C38.7752 105.643 51.6912 116 67 116C85.4631 116 100.5 100.928 100.5 82.4211C100.5 70.5921 94.3819 60.1805 85.1368 54.1842C89.0252 47.343 96.4213 42.7368 105.068 42.7368C117.821 42.7368 127.909 52.6852 127.909 65.1137V85.4737H109.636C108.821 85.4737 108.032 85.7735 107.461 86.3459C106.89 86.9182 106.564 87.7086 106.564 88.5263C106.564 89.344 106.89 90.1344 107.461 90.7068C108.032 91.2791 108.821 91.6062 109.636 91.5789H130.955C132.64 91.5789 134 90.2162 134 88.5263V65.1137C134 49.36 121.002 36.6316 105.068 36.6316C94.1644 36.6316 84.6473 42.5188 79.6985 51.3224C75.7829 49.7143 71.4866 48.8421 67 48.8421C62.5134 48.8421 58.2171 49.7143 54.3015 51.3224C49.3527 42.5188 39.8084 36.6316 28.9318 36.6316ZM28.9318 42.7368C37.5787 42.7368 45.002 47.343 48.8632 54.1842C39.6181 60.1805 33.5 70.5921 33.5 82.4211C33.5 83.4568 33.5544 84.4652 33.636 85.4737H6.09091V65.1137C6.09091 52.6852 16.179 42.7368 28.9318 42.7368ZM67 54.9474C82.1729 54.9474 94.4091 67.2124 94.4091 82.4211C94.4091 97.6297 82.1729 109.895 67 109.895C51.8271 109.895 39.5909 97.6297 39.5909 82.4211C39.5909 67.2124 51.8271 54.9474 67 54.9474ZM74.0426 70.1015C72.8734 70.2923 71.9217 71.11 71.5954 72.2547C71.2691 73.3994 71.5954 74.5987 72.4927 75.3891L76.4355 79.3412H50.2772C50.1956 79.3412 50.0868 79.3412 50.0053 79.3412C49.1895 79.3684 48.4282 79.75 47.8843 80.3496C47.3405 80.9492 47.0686 81.7397 47.0958 82.5573C47.123 83.375 47.5037 84.1382 48.1019 84.6833C48.7001 85.2284 49.4886 85.5282 50.3044 85.4737H76.4083L72.4655 89.4258C71.8673 89.9981 71.541 90.7613 71.5138 91.5789C71.5138 92.3966 71.8129 93.187 72.3839 93.7594C72.955 94.3318 73.7435 94.6588 74.5593 94.6588C75.375 94.6588 76.1636 94.3318 76.7346 93.7321L85.9253 84.5197C87.0946 83.3205 87.0946 81.4126 85.9253 80.2133L76.7346 71.0555C76.6802 70.9737 76.5986 70.8919 76.5442 70.8102C75.8916 70.265 74.9671 69.9652 74.0426 70.1015Z" fill="#D8DDEB"/>
</svg>
