<svg width="69" height="68" viewBox="0 0 69 68" fill="none" xmlns="http://www.w3.org/2000/svg">
<g clip-path="url(#clip0_1305_144)">
<path d="M52.0617 35.9384L36.0502 29.7887C35.4778 29.5646 34.8424 29.5646 34.2694 29.7887L18.2579 35.9384C17.9477 36.0559 17.6986 36.2949 17.5685 36.5995C17.4384 36.9047 17.4384 37.249 17.5685 37.5542C17.6986 37.8594 17.9477 38.0984 18.2579 38.2153L22.538 39.8838V48.0306C22.538 48.4839 22.6648 48.9275 22.9042 49.3126C23.1435 49.6977 23.4856 50.0088 23.8914 50.2101C27.4106 51.8851 31.2608 52.7508 35.1591 52.743C36.9431 52.7391 38.7219 52.543 40.4636 52.1585V52.7677H40.0369C39.7371 52.7651 39.4477 52.8736 39.2227 53.071C38.9977 53.2691 38.8533 53.5419 38.8175 53.8393L38.0735 59.928C38.0312 60.2754 38.1411 60.6242 38.3746 60.8853C38.6081 61.1463 38.9424 61.2944 39.2929 61.2918H44.1707C44.5213 61.2944 44.8556 61.1463 45.089 60.8853C45.3225 60.6242 45.4324 60.2754 45.3902 59.928L44.6461 53.8393C44.6104 53.5425 44.466 53.2691 44.241 53.071C44.0159 52.8736 43.7259 52.7651 43.4267 52.7677H42.9513V51.55C44.1798 51.1551 45.3746 50.6628 46.5244 50.0764C46.9179 49.8698 47.2476 49.56 47.4779 49.1801C47.7081 48.8002 47.8291 48.365 47.8297 47.9208V39.8838L52.1098 38.24C52.42 38.1225 52.6691 37.8835 52.7992 37.5789C52.9293 37.2736 52.9293 36.9294 52.7992 36.6242C52.6691 36.3189 52.42 36.0799 52.1098 35.963L52.0617 35.9384ZM40.6112 58.8564L41.0626 55.2032H42.282L42.7334 58.8564H40.6119H40.6112ZM35.1604 50.3322C31.6361 50.3387 28.1559 49.5522 24.9782 48.0306V40.7969L34.2707 44.365C34.8457 44.5768 35.4765 44.5768 36.0515 44.365L40.4662 42.6726V49.6256C38.731 50.0601 36.9503 50.2894 35.1618 50.3076V50.3322H35.1604ZM45.3427 47.8968C44.5544 48.3046 43.7395 48.6586 42.9038 48.956V41.7347L45.3427 40.7969V47.8968ZM41.8671 39.5188L35.7698 36.0241C35.4895 35.8461 35.1487 35.7896 34.8255 35.8689C34.5029 35.9474 34.2265 36.1546 34.06 36.4423C33.8942 36.7294 33.8519 37.0723 33.9449 37.3905C34.0373 37.7094 34.2564 37.9763 34.5511 38.1303L38.9287 40.6385L35.1604 42.0874L22.1003 37.0827L35.1604 32.0656L48.2082 37.0704L41.8677 39.5182L41.8671 39.5188Z" fill="#BB895B"/>
<path d="M7.41619 32.9859H13.7833C14.2406 32.9859 14.6633 32.7423 14.8922 32.3468C15.1205 31.9513 15.1205 31.4635 14.8922 31.068C14.6633 30.6725 14.2412 30.429 13.7833 30.429H7.41619C7.07735 30.4309 6.75281 30.5666 6.51348 30.8056C6.27414 31.0453 6.13821 31.3687 6.13626 31.7071C6.13626 32.0461 6.27154 32.3715 6.51153 32.6111C6.75151 32.8508 7.07735 32.9859 7.41685 32.9859H7.41619Z" fill="#BB895B"/>
<path d="M13.7834 47.4752H7.4162C6.95899 47.4752 6.53625 47.7188 6.30732 48.1143C6.07904 48.5098 6.07904 48.9975 6.30732 49.3931C6.53625 49.7886 6.95834 50.0321 7.4162 50.0321H13.7834C14.1228 50.0321 14.4487 49.897 14.6887 49.6574C14.9287 49.4177 15.0639 49.0924 15.0639 48.7533C15.062 48.415 14.9261 48.0909 14.6867 47.8519C14.4467 47.6129 14.1228 47.4772 13.784 47.4752H13.7834Z" fill="#BB895B"/>
<path d="M13.7834 55.9987H7.4162C6.95899 55.9987 6.53625 56.2422 6.30732 56.6377C6.07904 57.0332 6.07904 57.521 6.30732 57.9165C6.53625 58.312 6.95834 58.5556 7.4162 58.5556H13.7834C14.1228 58.5556 14.4487 58.4205 14.6887 58.1808C14.9287 57.9412 15.0639 57.6158 15.0639 57.2768C15.062 56.9384 14.9261 56.6143 14.6867 56.3753C14.4467 56.1363 14.1228 56.0006 13.784 55.9987H13.7834Z" fill="#BB895B"/>
<path d="M61.5818 30.429H55.2147C54.8758 30.4309 54.5513 30.5666 54.312 30.8056C54.0726 31.0453 53.9367 31.3687 53.9348 31.7071C53.9348 32.0461 54.07 32.3715 54.31 32.6111C54.55 32.8508 54.8758 32.9859 55.2153 32.9859H61.5825C62.0397 32.9859 62.4624 32.7423 62.6914 32.3468C62.9197 31.9513 62.9197 31.4635 62.6914 31.068C62.4624 30.6725 62.0404 30.429 61.5825 30.429H61.5818Z" fill="#BB895B"/>
<path d="M67.3721 22.6186C66.3322 21.5801 64.9222 20.9956 63.4517 20.993H42.6937C42.6228 20.9846 42.5513 20.9846 42.4804 20.993L37.641 16.6378C37.1044 16.1604 36.4645 15.8136 35.7718 15.6233V10.842H44.9817C45.7739 10.842 46.5335 10.5277 47.0941 9.9685C47.6541 9.40867 47.9689 8.65011 47.9689 7.85907V2.98295C47.9689 2.19191 47.6541 1.43335 47.0941 0.873518C46.5335 0.314337 45.7739 0 44.9817 0H36.2076C35.4154 0 34.6558 0.314337 34.0951 0.873518C33.5352 1.43335 33.2204 2.19191 33.2204 2.98295V15.6493C32.5277 15.8396 31.8878 16.1864 31.3512 16.6637L26.4604 21.0619C26.3342 21.0177 26.2016 20.995 26.0676 20.9937H5.54768C4.07719 20.9956 2.66718 21.5801 1.62723 22.6193C0.587937 23.6571 0.00195112 25.0651 0 26.5335V66.7212C0 67.0602 0.135278 67.3856 0.375265 67.6253C0.615253 67.8649 0.941089 68 1.28058 68H67.7201C68.0596 68 68.3854 67.8649 68.6254 67.6253C68.8654 67.3856 69.0006 67.0602 69.0006 66.7212V26.5329C68.9987 25.0645 68.4134 23.6564 67.3728 22.618L67.3721 22.6186ZM35.7803 2.9836C35.7803 2.74785 35.9715 2.55756 36.2069 2.55756H44.9811C45.0942 2.55756 45.2029 2.60237 45.2829 2.68225C45.3628 2.76214 45.4077 2.8706 45.4077 2.9836V7.8844C45.4077 7.9974 45.3628 8.10586 45.2829 8.18574C45.2029 8.26563 45.0942 8.31044 44.9811 8.31044H35.7803V2.9836ZM66.4395 65.4418H31.0852L2.55987 65.4424V26.5342C2.55987 25.7431 2.874 24.9846 3.43462 24.4247C3.99524 23.8656 4.75488 23.5512 5.54703 23.5512H16.632V23.5421H27.5361L33.0741 18.5647C33.4636 18.2101 33.9722 18.0133 34.4997 18.0133C35.0271 18.0133 35.5357 18.2101 35.9253 18.5647L41.4587 23.5421H53.3403V23.546L63.4517 23.5506C64.2438 23.5506 65.0034 23.8649 65.5641 24.4241C66.124 24.9839 66.4388 25.7425 66.4388 26.5335V65.4424L66.4395 65.4418Z" fill="#BB895B"/>
<path d="M61.5818 47.4752H55.2147C54.8758 47.4772 54.5513 47.6129 54.312 47.8519C54.0726 48.0916 53.9367 48.415 53.9348 48.7533C53.9348 49.0924 54.07 49.4177 54.31 49.6574C54.55 49.897 54.8758 50.0321 55.2153 50.0321H61.5825C62.0397 50.0321 62.4624 49.7886 62.6914 49.3931C62.9197 48.9975 62.9197 48.5098 62.6914 48.1143C62.4624 47.7188 62.0404 47.4752 61.5825 47.4752H61.5818Z" fill="#BB895B"/>
<path d="M61.5818 38.9518H55.2147C54.8758 38.9537 54.5513 39.0895 54.312 39.3285C54.0726 39.5681 53.9367 39.8915 53.9348 40.2299C53.9348 40.5689 54.07 40.8943 54.31 41.134C54.55 41.3736 54.8758 41.5087 55.2153 41.5087H61.5825C62.0397 41.5087 62.4624 41.2651 62.6914 40.8696C62.9197 40.4741 62.9197 39.9864 62.6914 39.5908C62.4624 39.1953 62.0404 38.9518 61.5825 38.9518H61.5818Z" fill="#BB895B"/>
<path d="M61.5818 55.9987H55.2147C54.8758 56.0006 54.5513 56.1363 54.312 56.3753C54.0726 56.615 53.9367 56.9384 53.9348 57.2768C53.9348 57.6158 54.07 57.9412 54.31 58.1808C54.55 58.4205 54.8758 58.5556 55.2153 58.5556H61.5825C62.0397 58.5556 62.4624 58.312 62.6914 57.9165C62.9197 57.521 62.9197 57.0332 62.6914 56.6377C62.4624 56.2422 62.0404 55.9987 61.5825 55.9987H61.5818Z" fill="#BB895B"/>
<path d="M13.7834 38.9518H7.4162C6.95899 38.9518 6.53625 39.1953 6.30732 39.5908C6.07904 39.9864 6.07904 40.4741 6.30732 40.8696C6.53625 41.2651 6.95834 41.5087 7.4162 41.5087H13.7834C14.1228 41.5087 14.4487 41.3736 14.6887 41.134C14.9287 40.8943 15.0639 40.5689 15.0639 40.2299C15.062 39.8915 14.9261 39.5675 14.6867 39.3285C14.4467 39.0895 14.1228 38.9537 13.784 38.9518H13.7834Z" fill="#BB895B"/>
</g>
<defs>
<clipPath id="clip0_1305_144">
<rect width="69" height="68" fill="white"/>
</clipPath>
</defs>
</svg>
