<svg width="127" height="114" viewBox="0 0 127 114" fill="none" xmlns="http://www.w3.org/2000/svg">
<g clip-path="url(#clip0_12_1244)">
<path fill-rule="evenodd" clip-rule="evenodd" d="M27.5648 21.9958L64.6545 86.3188C65.0875 87.1881 65.3761 87.7675 65.5205 88.4919L68.6954 109.933C68.8398 111.237 68.2625 112.541 67.1079 113.12C65.9534 113.7 64.5102 113.7 63.5 112.83L46.3261 99.0676C45.8932 98.7779 45.6045 98.3432 45.3159 97.7637L12.1227 40.1048L9.81363 41.4086C8.94772 41.9881 8.8034 42.7125 9.23636 43.4368L23.3795 68.065C24.2454 69.5137 23.6682 71.5419 22.225 72.4112C20.7818 73.2804 18.7614 72.7009 17.8954 71.2522L3.75226 46.624C1.73181 42.8573 1.29886 38.9458 6.63863 35.9035L8.94772 34.5997L8.22613 33.2958C5.91704 29.2394 7.36022 24.1688 11.2568 21.8509L16.1636 18.9534C20.4932 16.3457 25.5443 18.2291 27.5648 21.9958ZM19.1943 24.4586L14.2875 27.3561C13.1329 28.2253 12.9886 28.9496 13.5659 30.1086L47.4807 89.0714C48.6352 88.0573 49.9341 87.1881 51.3773 86.3188C52.8204 85.4496 54.4079 84.7253 55.9954 84.2907L21.9364 25.3278C21.3591 23.8791 20.4932 23.7343 19.1943 24.4586ZM59.3148 90.0855C58.1602 90.2304 56.4284 90.8099 54.6966 91.6791C53.1091 92.5483 51.8102 93.8522 51.0886 94.7215L61.0466 102.689L59.3148 90.0855Z" fill="#D8DDEB"/>
<path fill-rule="evenodd" clip-rule="evenodd" d="M33.7705 87.3329C35.5023 87.3329 36.9455 88.7817 36.9455 90.5201C36.9455 92.2586 35.5023 93.7073 33.7705 93.7073H3.175C1.44318 93.7073 0 92.2586 0 90.5201C0 88.7817 1.44318 87.3329 3.175 87.3329H33.7705Z" fill="#D8DDEB"/>
<path fill-rule="evenodd" clip-rule="evenodd" d="M96.9818 0.55481C98.5693 0.699681 99.8681 2.14833 99.8681 3.74192V10.1163H110.981C116.032 10.1163 120.217 12.1445 122.959 15.1868C125.701 18.2291 127 22.2855 127 26.197C127 30.1086 125.701 34.165 122.959 37.2074C122.382 37.9317 121.66 38.5112 120.939 39.0907C121.66 39.6702 122.382 40.2496 122.959 40.974C125.701 44.0163 127 48.0728 127 51.9843C127 55.8958 125.701 59.9522 122.959 62.9945C122.382 63.7189 121.66 64.2983 120.939 64.8778C121.66 65.4573 122.382 66.0368 122.959 66.7611C125.701 69.8035 127 73.8599 127 77.7715C127 81.683 125.701 85.7394 122.959 88.7817C120.217 91.824 116.032 93.8522 110.981 93.8522H73.4579C71.8704 93.8522 70.2829 92.2586 70.2829 90.665C70.2829 89.0714 71.7261 87.4779 73.4579 87.4779H110.981C114.444 87.4779 116.753 86.3189 118.197 84.5804C119.784 82.842 120.65 80.3791 120.65 77.7715C120.65 75.3086 119.784 72.8458 118.197 70.9625C116.609 69.224 114.444 68.065 110.981 68.065H60.4693C58.8818 68.065 57.2943 66.4714 57.2943 64.8778C57.2943 63.2842 58.7375 61.6906 60.4693 61.6906C77.3545 61.6906 94.2397 61.6906 110.981 61.6906C114.444 61.6906 116.753 60.5317 118.197 58.7932C119.784 57.0547 120.65 54.592 120.65 51.9843C120.65 49.5215 119.784 47.0586 118.197 45.1753C116.609 43.4368 114.444 42.2779 110.981 42.2779C107.228 42.2779 103.62 42.2779 99.8681 42.2779V51.4048C99.8681 52.5637 99.1466 53.7227 98.1363 54.3022C97.1261 54.8817 95.8272 54.7368 94.817 54.0124L80.5295 43.292L66.242 54.0124C65.2318 54.7368 63.9329 54.8817 62.9227 54.3022C61.9125 53.7227 61.1909 52.5637 61.1909 51.4048V42.2779H44.7386C43.1511 42.2779 41.5636 40.6843 41.5636 39.0907C41.5636 37.4971 43.0068 35.9035 44.7386 35.9035H61.0466V16.4907H3.31929C1.73179 16.4907 0.144287 14.8971 0.144287 13.3035C0.144287 11.7099 1.58747 10.1163 3.31929 10.1163H61.0466V3.74192C61.0466 2.00346 62.6341 0.55481 64.2216 0.55481H96.6932C96.6932 0.55481 96.8375 0.55481 96.9818 0.55481ZM93.5182 6.92911H67.3966V44.8855L78.5091 36.483C79.6636 35.6138 81.2511 35.6138 82.4057 36.483L93.5182 44.8855V39.0907V31.9919V6.92911ZM110.981 16.4907H99.8681V31.9919V35.9035C103.62 35.9035 107.228 35.9035 110.981 35.9035C114.444 35.9035 116.753 34.7445 118.197 33.006C119.784 31.2676 120.65 28.8047 120.65 26.197C120.65 23.7342 119.784 21.2715 118.197 19.3881C116.609 17.6497 114.444 16.4907 110.981 16.4907Z" fill="#D8DDEB"/>
</g>
<defs>
<clipPath id="clip0_12_1244">
<rect width="127" height="113" fill="white" transform="translate(0 0.5)"/>
</clipPath>
</defs>
</svg>
