<svg width="148" height="117" viewBox="0 0 148 117" fill="none" xmlns="http://www.w3.org/2000/svg">
<g clip-path="url(#clip0_12_1241)">
<path d="M68.3697 0.560983L2.41314 15.061C0.804443 15.3832 -0.321644 17.3165 9.51141e-05 18.9276L22.5218 113.983C22.8436 115.594 24.774 116.722 26.3827 116.4L92.3392 101.9C93.9479 101.578 95.074 99.6443 94.7523 98.0332L92.3392 87.561C105.531 90.2999 114.539 89.1721 129.661 84.0165C130.948 83.5332 131.913 82.4054 131.913 80.9554V60.4942L136.739 58.561V68.3887C135.774 69.0332 135.131 69.9998 135.131 71.2887V80.9554C135.131 82.7276 136.578 84.1776 138.348 84.1776C140.117 84.1776 141.565 82.5665 141.565 80.9554V71.2887C141.565 70.1609 140.922 69.0332 139.957 68.3887V57.272L146.07 54.8554C147.196 54.372 148.161 53.0832 148.161 51.7943C148.161 50.5054 147.357 49.2165 146.07 48.7331L105.852 32.622C105.048 32.2998 104.244 32.4609 103.439 32.622L81.4001 41.1609L72.2305 2.81648C71.5871 1.04426 70.3001 0.238761 68.3697 0.560983ZM66.761 7.48874L75.2871 43.7387L61.774 49.0554C61.6132 48.7332 61.2914 48.411 60.9697 48.0888C62.4175 47.7665 63.5436 46.4777 63.5436 44.8665C63.5436 43.4165 62.4175 41.9665 60.9697 41.6443C62.0958 40.6777 62.5784 38.9054 61.9349 37.6165C61.2914 36.3277 59.6827 35.522 58.2349 35.8443C58.8784 34.5554 58.5566 32.7831 57.4305 31.8165C56.3045 30.8498 54.5349 30.8498 53.4088 31.8165C53.4088 30.0443 51.961 28.4332 50.1914 28.4332C48.9045 28.4332 47.7784 29.2388 47.2958 30.3665C46.8131 29.2388 45.5262 28.4332 44.2392 28.4332C42.6305 28.5943 41.1827 30.0443 41.1827 31.6554C40.0566 30.6887 38.2871 30.6887 37.161 31.6554C36.0349 32.6221 35.7131 34.3943 36.3566 35.6832C35.0697 35.361 33.461 36.1665 32.8175 37.4554C32.174 38.7443 32.4958 40.3554 33.6218 41.3221C32.174 41.6443 31.0479 43.0943 31.0479 44.5443C31.0479 45.9943 32.174 47.4443 33.6218 47.7665C32.4958 48.7332 32.174 50.5054 32.6566 51.7943C33.3001 53.0832 34.9088 53.8887 36.1958 53.5665C35.5523 54.8554 35.874 56.6276 37.0001 57.5943C38.1262 58.5609 39.8958 58.5609 41.0218 57.5943C41.0218 59.0443 41.9871 60.4943 43.4349 60.8165C44.8827 61.1387 46.4914 60.3331 47.1349 58.8831C47.7784 60.172 49.3871 60.9776 50.674 60.6554C52.1218 60.3332 53.0871 58.8832 53.0871 57.4332C54.2131 58.3999 55.9827 58.3999 57.1088 57.4332C58.2349 56.4665 58.5566 54.6943 57.9131 53.4054C58.3958 53.5665 59.0392 53.5665 59.5218 53.4054C59.8436 54.0499 60.4871 54.5331 61.1305 54.8554L77.2175 61.1387V81.1165C77.2175 82.4054 78.1827 83.8554 79.4697 84.1776C81.561 84.822 83.4914 85.3054 85.4218 85.9499L87.8349 96.4221L36.1958 107.861L15.2827 18.9276L66.761 7.48874ZM52.2827 15.061L32.9784 19.8943L34.5871 26.1776L53.8914 21.3443L52.2827 15.061ZM9.00879 20.2165L29.9218 108.989L28.1523 109.472L7.07836 20.6999L9.00879 20.2165ZM104.565 39.3887L136.096 52.1165L104.565 64.6832L71.7479 52.1165L104.565 39.3887ZM125.478 63.2332V78.6999C109.07 84.0165 101.509 83.8554 83.6523 78.5387V63.5554L103.439 71.1276C104.244 71.4499 105.048 71.4499 105.852 71.1276L125.478 63.2332ZM73.1958 71.4499L36.1958 79.5054L37.6436 85.7887L74.6436 77.7331L73.1958 71.4499ZM76.574 81.1165L37.9653 89.1721L39.2523 95.4554L77.861 87.3998L76.574 81.1165Z" fill="#D8DDEB"/>
</g>
<defs>
<clipPath id="clip0_12_1241">
<rect width="148" height="116" fill="white" transform="translate(0 0.5)"/>
</clipPath>
</defs>
</svg>
