<svg width="95" height="20" viewBox="0 0 95 20" fill="none" xmlns="http://www.w3.org/2000/svg">
<path d="M32.1145 9.40191H33.3253V1.93298H32.1145V0.490387H36.4222V1.94462H35.1943V4.91706H39.8011V1.93298H38.576V0.490387H42.8837V1.94462H41.67V9.40191H42.8837V10.83H38.576V9.40191H39.8011V6.44691H35.1943V9.40191H36.4222V10.83H32.1145V9.40191Z" fill="white"/>
<path d="M44.3083 9.40191H45.522V1.93298H44.3083V0.490387H51.8268V3.15454H50.2285V2.02024H47.3796V4.85889H50.7186V6.38874H47.3881V9.2972H50.4422V8.13382H52.0291V10.83H44.3083V9.40191Z" fill="white"/>
<path d="M53.4365 9.4019H54.6502V1.93298H53.4365V0.490383H57.9009C58.5498 0.466617 59.1987 0.54011 59.8268 0.708517C60.9521 1.08662 61.6957 2.02023 61.6957 3.47446C61.6957 4.92869 60.9521 5.93502 59.7841 6.34511V6.3742C59.9985 6.50239 60.174 6.68861 60.2912 6.91226L61.4621 9.06743C61.5287 9.18807 61.63 9.28487 61.7523 9.34471C61.8747 9.40454 62.012 9.42451 62.1459 9.4019H62.4735V10.83H61.2912C60.4365 10.83 60.1915 10.6555 59.8667 10.0563L58.4251 7.39216C58.2114 6.99952 58.0262 6.86864 57.4422 6.86864H56.5134V9.4019H57.6844V10.83H53.4365V9.4019ZM58.2 5.33006C59.1858 5.33006 59.8268 4.74837 59.8268 3.62861C59.8268 2.95676 59.5846 2.43323 59.0291 2.20056C58.6657 2.05928 58.278 1.99496 57.8895 2.01151H56.5191V5.33879L58.2 5.33006Z" fill="white"/>
<path d="M63.6929 9.62295L68.5532 2.50013C68.6779 2.32013 68.8211 2.15436 68.9806 2.00569V1.97661C68.7917 2.00275 68.6014 2.01732 68.4108 2.02024H65.3453V3.57626H63.7641V0.490387H71.237V1.68576L66.3738 8.82022C66.2491 9.00022 66.1058 9.16599 65.9464 9.31466V9.33211C66.14 9.30538 66.3351 9.29081 66.5305 9.28848H69.7954V7.69755H71.4022V10.83H63.71L63.6929 9.62295Z" fill="white"/>
<path d="M77.969 0.315887C80.9633 0.315887 83.2168 2.64266 83.2168 5.58602C83.2331 6.30025 83.1094 7.01061 82.853 7.67533C82.5965 8.34006 82.2124 8.94574 81.7234 9.45676C81.2343 9.96779 80.6501 10.3739 80.0052 10.6511C79.3602 10.9283 78.6674 11.0712 77.9676 11.0712C77.2678 11.0712 76.575 10.9283 75.93 10.6511C75.2851 10.3739 74.7009 9.96779 74.2118 9.45676C73.7228 8.94574 73.3387 8.34006 73.0822 7.67533C72.8258 7.01061 72.702 6.30025 72.7183 5.58602C72.7183 2.64266 74.9719 0.315887 77.969 0.315887ZM77.969 9.33211C79.7952 9.33211 81.2909 7.71501 81.2909 5.58892C81.2909 3.553 79.7952 1.99407 77.969 1.99407C76.1428 1.99407 74.6443 3.55009 74.6443 5.58892C74.6443 7.7121 76.1428 9.33211 77.969 9.33211Z" fill="white"/>
<path d="M89.7781 0.315887C91.5901 0.315887 93.7439 1.043 93.7439 2.35181V3.77986H92.0345V3.02366C92.0345 2.31109 90.9348 1.94753 89.8522 1.94753C87.6984 1.94753 86.3565 3.34359 86.3565 5.54239C86.3565 7.74119 87.6984 9.37283 89.9377 9.37283C90.7496 9.37283 92.2624 9.1547 92.2624 8.2967V7.18858H90.4334V5.76052H93.9718V8.87839C93.9718 10.449 91.2596 11.0045 89.7639 11.0045C86.6528 11.0045 84.4277 8.70389 84.4277 5.6151C84.4277 2.52632 86.6243 0.315887 89.7781 0.315887Z" fill="white"/>
<path d="M32.4707 19.0289H33.0633V15.2479H32.4707V14.7157H35.7584V15.8616H35.1886V15.3061H33.7641V16.9145H35.4052V17.4758H33.7641V19.0289H34.408V19.5641H32.4992L32.4707 19.0289Z" fill="#CCCCCC"/>
<path d="M40.3711 14.6342C40.6916 14.6284 41.01 14.6882 41.3075 14.8101C41.605 14.932 41.8756 15.1136 42.1032 15.344C42.3308 15.5745 42.5108 15.8492 42.6327 16.1519C42.7546 16.4546 42.8157 16.7792 42.8126 17.1064C42.8238 17.4407 42.769 17.7739 42.6514 18.0861C42.5338 18.3983 42.3559 18.6832 42.1282 18.9237C41.9005 19.1642 41.6277 19.3555 41.3261 19.4862C41.0244 19.6168 40.7001 19.6841 40.3725 19.6841C40.0448 19.6841 39.7205 19.6168 39.4189 19.4862C39.1173 19.3555 38.8445 19.1642 38.6168 18.9237C38.3891 18.6832 38.2112 18.3983 38.0936 18.0861C37.976 17.7739 37.9211 17.4407 37.9323 17.1064C37.9289 16.7793 37.9897 16.4548 38.1112 16.1521C38.2328 15.8494 38.4125 15.5747 38.6399 15.3442C38.8673 15.1137 39.1377 14.9321 39.435 14.8102C39.7324 14.6882 40.0507 14.6284 40.3711 14.6342ZM40.3711 19.0347C40.6101 19.0265 40.8451 18.97 41.0625 18.8683C41.2799 18.7666 41.4754 18.6219 41.6376 18.4425C41.7998 18.2632 41.9255 18.0527 42.0074 17.8233C42.0893 17.594 42.1257 17.3503 42.1146 17.1064C42.1241 16.8664 42.086 16.627 42.0026 16.4024C41.9192 16.1778 41.7922 15.9727 41.6292 15.7995C41.4663 15.6262 41.2707 15.4884 41.0542 15.3942C40.8378 15.3001 40.6049 15.2516 40.3696 15.2516C40.1344 15.2516 39.9015 15.3001 39.6851 15.3942C39.4686 15.4884 39.273 15.6262 39.11 15.7995C38.9471 15.9727 38.8201 16.1778 38.7366 16.4024C38.6532 16.627 38.6151 16.8664 38.6246 17.1064C38.6136 17.3505 38.6501 17.5944 38.7322 17.824C38.8143 18.0535 38.9402 18.2641 39.1027 18.4436C39.2652 18.623 39.461 18.7676 39.6788 18.8691C39.8965 18.9706 40.1318 19.0269 40.3711 19.0347Z" fill="#CCCCCC"/>
<path d="M45.5248 15.245H44.9265V14.7157H46.7954V15.245H46.1972V17.7666C46.1862 18.0411 46.2482 18.3135 46.3766 18.5548C46.4916 18.7196 46.6459 18.8515 46.8249 18.9381C47.004 19.0246 47.2018 19.0629 47.3994 19.0493C47.5986 19.0634 47.798 19.0238 47.9775 18.9344C48.157 18.8451 48.3104 18.7092 48.4222 18.5403C48.5495 18.3005 48.6124 18.0306 48.6045 17.7579V15.245H48.0063V14.7157H49.8695V15.245H49.2769V17.7666C49.2826 18.1794 49.1675 18.5845 48.9464 18.93C48.7628 19.1656 48.5264 19.3527 48.2572 19.4757C47.988 19.5987 47.6939 19.6539 47.3994 19.6368C47.1036 19.652 46.8084 19.5959 46.5377 19.4732C46.2669 19.3504 46.0283 19.1643 45.841 18.93C45.6185 18.5858 45.5079 18.1787 45.5248 17.7666V15.245Z" fill="#CCCCCC"/>
<path d="M52.0461 19.0289H52.6387V15.2479H52.0461V14.7157H53.3054L55.6387 18.2058C55.6997 18.3183 55.753 18.4349 55.7982 18.5548H55.821C55.8026 18.4257 55.7912 18.2956 55.7868 18.1651V15.2566H55.18V14.7157H57.0575V15.245H56.4592V19.5641H55.7982L53.4649 16.0739C53.4014 15.9628 53.348 15.846 53.3054 15.7249H53.2854C53.3024 15.8551 53.311 15.9862 53.3111 16.1175V19.026H53.9236V19.5612H52.0461V19.0289Z" fill="#CCCCCC"/>
<path d="M59.2969 19.0289H59.8895V15.2479H59.2969V14.7157H61.3197C61.6597 14.702 61.9997 14.7412 62.3282 14.832C63.237 15.1229 63.8296 15.9605 63.8296 17.1384C63.8296 18.3163 63.2598 19.1307 62.3282 19.4332C62.0039 19.5311 61.6662 19.5753 61.3282 19.5641H59.2969V19.0289ZM61.2912 18.9998C61.5651 19.0114 61.8386 18.9699 62.0974 18.8777C62.7356 18.6508 63.1316 18.0255 63.1316 17.1326C63.1316 16.2397 62.7356 15.6173 62.1031 15.3875C61.8412 15.3009 61.5661 15.2635 61.2912 15.277H60.5761V18.9998H61.2912Z" fill="#CCCCCC"/>
<path d="M65.7668 19.0289H66.2227L67.7355 14.7157H68.4962L70.009 19.0289H70.4677V19.5641H68.8181V19.0289H69.3224L68.9549 17.9499H67.2711L66.9036 19.0289H67.4136V19.5641H65.7668V19.0289ZM68.7868 17.4002L68.217 15.7191C68.1758 15.5985 68.1481 15.4737 68.1343 15.3468H68.1144C68.0975 15.4729 68.0708 15.5973 68.0346 15.7191L67.4477 17.4002H68.7868Z" fill="#CCCCCC"/>
<path d="M73.1117 19.0289H73.71V15.2799H72.5988V16.0216H72.0291V14.7157H76.1031V16.0216H75.5048V15.2799H74.388V19.0289H74.9863V19.5641H73.1117V19.0289Z" fill="#CCCCCC"/>
<path d="M78.2539 19.0289H78.8465V15.2479H78.2539V14.7157H80.1171V15.245H79.5189V19.026H80.1171V19.5612H78.2539V19.0289Z" fill="#CCCCCC"/>
<path d="M84.7923 14.6342C85.1127 14.6288 85.431 14.6889 85.7283 14.8109C86.0256 14.933 86.296 15.1145 86.5236 15.3449C86.7511 15.5753 86.9312 15.8498 87.0532 16.1524C87.1751 16.4549 87.2366 16.7793 87.2339 17.1064C87.2339 17.7675 86.9767 18.4015 86.5188 18.8689C86.0609 19.3364 85.4399 19.599 84.7923 19.599C84.1448 19.599 83.5237 19.3364 83.0659 18.8689C82.608 18.4015 82.3507 17.7675 82.3507 17.1064C82.3472 16.7791 82.4082 16.4543 82.5299 16.1514C82.6516 15.8485 82.8316 15.5737 83.0593 15.3431C83.287 15.1126 83.5577 14.9311 83.8554 14.8093C84.1531 14.6875 84.4717 14.628 84.7923 14.6342ZM84.7923 19.0347C85.0312 19.0265 85.2661 18.9699 85.4833 18.8683C85.7006 18.7666 85.8959 18.6218 86.0579 18.4424C86.2198 18.2629 86.3452 18.0524 86.4268 17.8231C86.5084 17.5938 86.5445 17.3501 86.533 17.1064C86.5425 16.8664 86.5044 16.6269 86.421 16.4024C86.3376 16.1778 86.2106 15.9727 86.0476 15.7995C85.8847 15.6262 85.6891 15.4884 85.4726 15.3942C85.2562 15.3001 85.0233 15.2515 84.788 15.2515C84.5528 15.2515 84.3199 15.3001 84.1035 15.3942C83.887 15.4884 83.6914 15.6262 83.5284 15.7995C83.3655 15.9727 83.2385 16.1778 83.155 16.4024C83.0716 16.6269 83.0335 16.8664 83.043 17.1064C83.032 17.3508 83.0686 17.5949 83.1509 17.8246C83.2331 18.0544 83.3593 18.2651 83.5221 18.4446C83.6849 18.624 83.8811 18.7686 84.0991 18.8699C84.3172 18.9713 84.5528 19.0273 84.7923 19.0347Z" fill="#CCCCCC"/>
<path d="M89.4846 19.0289H90.0772V15.2479H89.4846V14.7157H90.741L93.0772 18.2058C93.1381 18.3183 93.1915 18.4349 93.2367 18.5548H93.2567C93.2383 18.4257 93.2269 18.2956 93.2225 18.1651V15.2566H92.6185V14.7157H94.496V15.245H93.9091V19.5641H93.2481L90.9148 16.0739C90.8496 15.9633 90.7952 15.8464 90.7524 15.7249H90.7325C90.751 15.8549 90.7605 15.9861 90.761 16.1175V19.026H91.3735V19.5612H89.496L89.4846 19.0289Z" fill="#CCCCCC"/>
<path d="M12.6589 3.18022H14.9096V8.71211H6.42819V3.18022H8.67889V0.510254H0.747314V3.18022H2.99801V16.8907H0.747314V19.5636H8.67889V16.8907H6.42819V11.4664H14.9096V16.8907H12.5535V19.5636H20.9552V16.8907H18.4167V11.4664H24.4651V8.71211H18.4167V3.18022H23.1289V4.83804H26.0093V3.18022V0.696395V0.510254H12.6589V3.18022Z" fill="#E9B687"/>
</svg>
