<svg width="189" height="172" viewBox="0 0 189 172" fill="none" xmlns="http://www.w3.org/2000/svg">
<g clip-path="url(#clip0_1305_181)">
<path d="M149.357 42.4772L134.517 21.7089L133.006 19.6019L95.5046 0.662802C95.0706 0.444919 94.5599 0.444919 94.126 0.662802L56.0249 19.6019L54.4809 21.7089L39.6475 42.4772C39.1656 43.1524 39.3239 44.0862 40.0071 44.5723C40.0695 44.613 40.139 44.6537 40.2061 44.6872L54.4809 51.7959V70.6656C54.4737 71.245 54.7973 71.7765 55.3224 72.0303L87.6527 87.9813C88.3984 88.3572 89.3142 88.0555 89.6882 87.3204C89.7985 87.1026 89.8536 86.8631 89.8536 86.6189V75.4039C89.8392 73.6992 90.7719 72.1285 92.2799 71.3096C93.6585 70.5602 95.3199 70.5458 96.7153 71.2689C98.2473 72.0734 99.2039 73.6441 99.2111 75.3632V86.5734C99.2039 87.4066 99.88 88.089 100.722 88.0938C100.964 88.0938 101.196 88.0387 101.412 87.9358L133.673 71.9848C134.198 71.7334 134.522 71.1995 134.514 70.6201V51.7983L148.796 44.6896C149.549 44.3208 149.851 43.4206 149.48 42.6759C149.446 42.6089 149.403 42.5395 149.362 42.4772H149.357ZM94.1332 5.56877C94.5671 5.35088 95.0778 5.35088 95.5117 5.56877L128.067 22.0585L96.7177 37.6551L94.512 38.7469L92.2847 37.6407V37.6742L60.9613 22.0704L94.1332 5.56877ZM54.4809 46.8923L46.7993 43.059C46.0465 42.6831 45.7516 41.7757 46.1304 41.0334C46.1639 40.9712 46.1999 40.9113 46.2407 40.8491L54.4809 29.3132L57.4058 25.219L91.1962 42.0295L79.7697 58.0283C79.3358 58.6365 78.5206 58.84 77.8445 58.5048L58.921 49.0903L54.4809 46.8923ZM130.077 67.9743C130.084 68.5466 129.76 69.0805 129.242 69.3391L105.85 80.9372C105.104 81.3131 104.188 81.0186 103.81 80.2812C103.699 80.0633 103.637 79.8167 103.644 79.5724V75.3776C103.615 71.257 100.762 67.675 96.7201 66.679C96.4108 66.6048 96.0848 66.5497 95.7683 66.509V59.4625C95.7683 59.2231 95.9625 59.0316 96.2022 59.0316H99.12C99.6019 59.0316 99.9879 58.6485 99.9951 58.172V57.3867C99.9951 56.9102 99.6091 56.5271 99.1272 56.5271H96.2022C95.9601 56.5271 95.7683 56.3355 95.7683 56.0961V52.5477C95.7827 52.0761 95.4086 51.681 94.9339 51.6666H94.1068C93.6321 51.6666 93.2437 52.0425 93.2389 52.5118V56.0674C93.2389 56.3068 93.0447 56.4984 92.805 56.4984H89.8872C89.4053 56.4984 89.0193 56.8815 89.0193 57.3579V58.1433C89.0193 58.6149 89.4125 58.9956 89.8872 59.0028H92.805C93.0471 59.0028 93.2389 59.1944 93.2389 59.4338V66.4611C92.9152 66.5018 92.5964 66.5569 92.2871 66.6383C88.2521 67.6607 85.4326 71.257 85.4254 75.3776V79.6419C85.4326 80.4751 84.7565 81.1575 83.915 81.1623C83.6729 81.1623 83.4403 81.1072 83.2245 81.0042L59.777 69.3319C59.2519 69.0805 58.9282 68.5466 58.9354 67.9672V54.0011L79.2783 64.1195C79.9543 64.4547 80.7671 64.2488 81.2034 63.643L92.2991 48.1158L94.4784 45.0128L96.6913 48.1158L107.794 63.643C108.228 64.2512 109.05 64.4547 109.719 64.1195L130.055 54.0011L130.077 67.9743ZM142.201 43.0662L134.519 46.8947L130.084 49.0975L111.16 58.4928C110.484 58.828 109.671 58.6221 109.235 58.0164L97.8014 42.0319L131.592 25.2214L134.517 29.3156L142.793 40.8515C143.268 41.5339 143.102 42.4676 142.414 42.9393C142.345 42.9872 142.275 43.0279 142.208 43.0614H142.201V43.0686V43.0662Z" fill="white"/>
<path d="M46.2287 100.008H53.3229C53.5698 100.008 53.7688 100.207 53.7688 100.453V112.707C53.7688 112.954 53.9678 113.153 54.2147 113.153H66.9767C67.2236 113.153 67.4226 112.954 67.4226 112.707V100.453C67.4226 100.207 67.6216 100.008 67.8685 100.008H74.9627C75.2097 100.008 75.4087 100.207 75.4087 100.453V133.536C75.4087 133.782 75.2097 133.981 74.9627 133.981H67.8685C67.6216 133.981 67.4226 133.782 67.4226 133.536V120.199C67.4226 119.953 67.2236 119.754 66.9767 119.754H54.2147C53.9678 119.754 53.7688 119.953 53.7688 120.199V133.536C53.7688 133.782 53.5698 133.981 53.3229 133.981H46.2287C45.9817 133.981 45.7827 133.782 45.7827 133.536V100.453C45.7827 100.207 45.9817 100.008 46.2287 100.008Z" fill="white"/>
<path d="M80.8822 117.046C80.8822 106.066 88.8203 99.4692 98.9282 99.4692C109.036 99.4692 116.972 106.068 116.972 117.046C116.972 128.024 109.034 134.575 98.9282 134.575C88.8227 134.575 80.8822 128.026 80.8822 117.046ZM108.887 116.85C108.887 110.399 104.598 106.264 98.9282 106.264C93.2581 106.264 88.969 110.351 88.969 116.85C88.969 123.348 93.2581 127.485 98.9282 127.485C104.598 127.485 108.887 123.348 108.887 116.85Z" fill="white"/>
<path d="M133.457 100.008C133.651 100.008 133.824 100.135 133.884 100.319L140.885 122.361H140.983L147.885 100.322C147.943 100.135 148.115 100.008 148.312 100.008H157.677C157.912 100.008 158.106 100.188 158.123 100.422L160.57 133.504C160.59 133.763 160.383 133.983 160.124 133.983H153.188C152.951 133.983 152.757 133.799 152.743 133.562L151.436 110.84H151.338L144.138 133.67C144.08 133.856 143.908 133.981 143.711 133.981H138.055C137.861 133.981 137.689 133.854 137.629 133.67L130.381 110.84H130.232L129.022 133.56C129.01 133.797 128.813 133.983 128.576 133.983H121.642C121.383 133.983 121.177 133.763 121.196 133.504L123.692 100.422C123.709 100.19 123.903 100.01 124.138 100.01H133.455L133.457 100.008Z" fill="white"/>
<path d="M188.556 100.456V105.915C188.556 106.161 188.357 106.36 188.111 106.36H174.903C174.656 106.36 174.457 106.559 174.457 106.805V112.856C174.457 113.102 174.656 113.301 174.903 113.301H187.319C187.566 113.301 187.765 113.5 187.765 113.747V119.206C187.765 119.452 187.566 119.651 187.319 119.651H174.903C174.656 119.651 174.457 119.85 174.457 120.096V127.08C174.457 127.327 174.656 127.526 174.903 127.526H188.554C188.801 127.526 189 127.725 189 127.971V133.528C189 133.775 188.801 133.974 188.554 133.974H166.967C166.72 133.974 166.521 133.775 166.521 133.528V100.446C166.521 100.199 166.72 100.001 166.967 100.001H188.111C188.357 100.001 188.556 100.199 188.556 100.446V100.456Z" fill="white"/>
<path d="M11.9875 165.21C14.4138 165.21 16.2791 164.046 16.2791 161.904C16.2791 159.761 13.8959 158.887 12.5006 158.362L8.02205 156.686C4.00623 155.183 1.25869 152.748 1.25869 148.021C1.25869 141.382 7.22368 138.425 13.1072 138.425C16.6962 138.425 20.8031 140.063 23.0616 142.136C23.2174 142.28 23.2438 142.514 23.1335 142.696L20.3908 147.181C20.2421 147.423 19.9185 147.461 19.7075 147.272C17.8446 145.601 15.181 144.387 12.9225 144.387C10.4963 144.387 8.72452 145.318 8.72452 147.274C8.72452 149.23 10.4627 149.946 11.9899 150.535L16.7945 152.353C20.8966 153.861 23.7928 156.478 23.7928 161.156C23.7928 168.114 17.5234 171.498 11.2898 171.498C6.79213 171.498 2.77152 169.245 0.148648 166.912C-0.0191776 166.764 -0.0455502 166.515 0.0815175 166.328L3.29417 161.597C3.45001 161.367 3.77128 161.338 3.97267 161.53C6.30064 163.742 9.64756 165.205 11.9899 165.205L11.9875 165.21Z" fill="white"/>
<path d="M43.987 171.5C34.5169 171.5 27.1014 165.258 27.1014 154.915C27.1014 144.571 34.6128 138.329 43.987 138.329C50.151 138.329 53.6897 140.709 54.8285 141.753C54.9628 141.877 55.0059 142.067 54.9412 142.237L52.9537 147.554C52.8458 147.842 52.4813 147.942 52.2488 147.741C51.0452 146.7 48.0124 144.851 44.4066 144.851C38.9474 144.851 34.7494 148.486 34.7494 154.773C34.7494 161.061 39.1344 164.65 44.4066 164.65C48.0963 164.65 50.8391 163.309 52.6348 161.681C52.8602 161.477 53.2174 161.564 53.3373 161.841L55.483 166.841C55.5549 167.008 55.5214 167.202 55.3919 167.332C53.6849 169.015 50.2948 171.498 43.987 171.498V171.5Z" fill="white"/>
<path d="M60.4339 138.796H67.0965C67.3435 138.796 67.5425 138.995 67.5425 139.241V150.787C67.5425 151.033 67.7415 151.232 67.9884 151.232H80.0167C80.2636 151.232 80.4626 151.033 80.4626 150.787V139.241C80.4626 138.995 80.6616 138.796 80.9086 138.796H87.5712C87.8182 138.796 88.0171 138.995 88.0171 139.241V170.492C88.0171 170.739 87.8182 170.937 87.5712 170.937H80.9086C80.6616 170.937 80.4626 170.739 80.4626 170.492V157.922C80.4626 157.675 80.2636 157.476 80.0167 157.476H67.9884C67.7415 157.476 67.5425 157.675 67.5425 157.922V170.492C67.5425 170.739 67.3435 170.937 67.0965 170.937H60.4339C60.1869 170.937 59.9879 170.739 59.9879 170.492V139.241C59.9879 138.995 60.1869 138.796 60.4339 138.796Z" fill="white"/>
<path d="M93.1982 154.915C93.1982 144.526 100.71 138.284 110.271 138.284C119.832 138.284 127.343 144.526 127.343 154.915C127.343 165.303 119.832 171.5 110.271 171.5C100.71 171.5 93.1982 165.303 93.1982 154.915ZM119.693 154.728C119.693 148.625 115.634 144.712 110.271 144.712C104.908 144.712 100.849 148.579 100.849 154.728C100.849 160.876 104.908 164.791 110.271 164.791C115.634 164.791 119.693 160.879 119.693 154.728Z" fill="white"/>
<path d="M130.889 154.915C130.889 144.526 138.401 138.284 147.962 138.284C157.523 138.284 165.035 144.526 165.035 154.915C165.035 165.303 157.523 171.5 147.962 171.5C138.401 171.5 130.889 165.303 130.889 154.915ZM157.387 154.728C157.387 148.625 153.328 144.712 147.962 144.712C142.596 144.712 138.54 148.579 138.54 154.728C138.54 160.876 142.599 164.791 147.962 164.791C153.325 164.791 157.387 160.879 157.387 154.728Z" fill="white"/>
<path d="M177.722 139.244V164.252C177.722 164.499 177.921 164.698 178.168 164.698H188.422C188.669 164.698 188.868 164.896 188.868 165.143V170.492C188.868 170.739 188.669 170.937 188.422 170.937H170.657C170.41 170.937 170.211 170.739 170.211 170.492V139.241C170.211 138.995 170.41 138.796 170.657 138.796H177.274C177.521 138.796 177.72 138.995 177.72 139.241L177.722 139.244Z" fill="white"/>
<path d="M38.8228 100.013H2.15296C1.7334 100.013 1.39295 100.353 1.39295 100.772V133.215C1.39295 133.634 1.7334 133.974 2.15296 133.974H38.8228C39.2423 133.974 39.5828 133.634 39.5828 133.215V100.772C39.5828 100.353 39.2423 100.013 38.8228 100.013ZM33.4787 110.263H30.7192V108.984H25.2769V115.265H31.695V117.91H25.2769V125H26.7154V127.55H20.5634V125H21.7933V117.91H11.9971V125H13.1024V127.55H7.4946V125H8.59985V108.984H7.4946V106.439H13.1024V108.984H11.9971V115.267H21.7933V108.984H20.5706V106.439H33.4763V110.261L33.4787 110.263Z" fill="white"/>
</g>
<defs>
<clipPath id="clip0_1305_181">
<rect width="189" height="171" fill="white" transform="translate(0 0.5)"/>
</clipPath>
</defs>
</svg>
