<svg width="220" height="62" viewBox="0 0 220 62" fill="none" xmlns="http://www.w3.org/2000/svg">
<g clip-path="url(#clip0_1305_128)">
<path d="M119.052 7.43799H124.067C124.24 7.43799 124.384 7.57874 124.384 7.75467V16.4243C124.384 16.5975 124.525 16.741 124.701 16.741H133.725C133.898 16.741 134.042 16.6002 134.042 16.4243V7.75467C134.042 7.58144 134.182 7.43799 134.358 7.43799H139.373C139.546 7.43799 139.69 7.57874 139.69 7.75467V31.1569C139.69 31.3302 139.549 31.4736 139.373 31.4736H134.358C134.185 31.4736 134.042 31.3329 134.042 31.1569V21.7213C134.042 21.5481 133.901 21.4046 133.725 21.4046H124.701C124.527 21.4046 124.384 21.5454 124.384 21.7213V31.1569C124.384 31.3302 124.243 31.4736 124.067 31.4736H119.052C118.879 31.4736 118.735 31.3329 118.735 31.1569V7.75467C118.735 7.58144 118.876 7.43799 119.052 7.43799Z" fill="#394C41"/>
<path d="M143.556 19.4884C143.556 11.7201 149.169 7.05371 156.315 7.05371C163.462 7.05371 169.075 11.7201 169.075 19.4884C169.075 27.2566 163.462 31.8878 156.315 31.8878C149.169 31.8878 143.556 27.2566 143.556 19.4884ZM163.356 19.3503C163.356 14.7868 160.322 11.8608 156.315 11.8608C152.309 11.8608 149.275 14.7516 149.275 19.3503C149.275 23.949 152.309 26.875 156.315 26.875C160.322 26.875 163.356 23.949 163.356 19.3503Z" fill="#394C41"/>
<path d="M180.727 7.43799C180.865 7.43799 180.987 7.52731 181.027 7.65723L185.977 23.2506H186.047L190.929 7.65994C190.97 7.52731 191.092 7.43799 191.23 7.43799H197.851C198.016 7.43799 198.154 7.5652 198.165 7.73031L199.896 31.1326C199.91 31.3166 199.763 31.4709 199.582 31.4709H194.678C194.51 31.4709 194.372 31.341 194.364 31.1732L193.44 15.1007H193.37L188.28 31.249C188.239 31.3816 188.117 31.4709 187.979 31.4709H183.98C183.842 31.4709 183.72 31.3816 183.68 31.2517L178.554 15.1007H178.448L177.592 31.1732C177.584 31.341 177.446 31.4709 177.278 31.4709H172.375C172.19 31.4709 172.047 31.3139 172.06 31.1326L173.827 7.73031C173.84 7.5652 173.976 7.43799 174.141 7.43799H180.727Z" fill="#394C41"/>
<path d="M219.686 7.75467V11.6172C219.686 11.7904 219.545 11.9338 219.369 11.9338H210.031C209.857 11.9338 209.714 12.0746 209.714 12.2505V16.5298C209.714 16.7031 209.855 16.8465 210.031 16.8465H218.811C218.984 16.8465 219.128 16.9873 219.128 17.1632V21.0257C219.128 21.1989 218.987 21.3424 218.811 21.3424H210.031C209.857 21.3424 209.714 21.4831 209.714 21.6591V26.6015C209.714 26.7748 209.855 26.9182 210.031 26.9182H219.683C219.856 26.9182 220 27.059 220 27.2349V31.165C220 31.3383 219.859 31.4817 219.683 31.4817H204.42C204.247 31.4817 204.103 31.341 204.103 31.165V7.75467C204.103 7.58144 204.244 7.43799 204.42 7.43799H219.371C219.545 7.43799 219.688 7.57874 219.688 7.75467H219.686Z" fill="#394C41"/>
<path d="M94.8415 53.5605C96.5563 53.5605 97.8756 52.7377 97.8756 51.2219C97.8756 49.7062 96.1906 49.0863 95.2045 48.7182L92.0376 47.5327C89.1985 46.4689 87.2561 44.7475 87.2561 41.402C87.2561 36.7058 91.4741 34.6135 95.6352 34.6135C98.1736 34.6135 101.075 35.772 102.673 37.239C102.784 37.3392 102.801 37.507 102.725 37.6342L100.785 40.8065C100.679 40.977 100.449 41.0041 100.3 40.8714C98.9836 39.6886 97.1008 38.8306 95.5025 38.8306C93.7876 38.8306 92.5333 39.491 92.5333 40.8742C92.5333 42.2573 93.7632 42.7634 94.8415 43.1803L98.2386 44.466C101.137 45.5324 103.185 47.3838 103.185 50.6941C103.185 55.6176 98.7533 58.0104 94.3457 58.0104C91.1653 58.0104 88.3235 56.4161 86.4677 54.7677C86.3485 54.6622 86.3323 54.4862 86.419 54.3563L88.6892 51.0081C88.8003 50.8457 89.0278 50.8267 89.1687 50.9621C90.8158 52.5266 93.1808 53.5632 94.8387 53.5632L94.8415 53.5605Z" fill="#394C41"/>
<path d="M117.468 58.0104C110.771 58.0104 105.529 53.593 105.529 46.2795C105.529 38.966 110.838 34.5459 117.468 34.5459C121.826 34.5459 124.327 36.2295 125.131 36.9684C125.226 37.055 125.256 37.1904 125.213 37.3095L123.807 41.0718C123.731 41.2748 123.474 41.3479 123.308 41.2044C122.458 40.4682 120.312 39.1608 117.763 39.1608C113.902 39.1608 110.936 41.7322 110.936 46.1794C110.936 50.6265 114.035 53.1654 117.763 53.1654C120.372 53.1654 122.311 52.218 123.582 51.065C123.742 50.9215 123.994 50.9811 124.078 51.1787L125.595 54.7163C125.646 54.8354 125.622 54.9735 125.53 55.0628C124.321 56.2537 121.924 58.0104 117.465 58.0104H117.468Z" fill="#394C41"/>
<path d="M129.095 34.876H133.806C133.979 34.876 134.123 35.0167 134.123 35.1927V43.3588C134.123 43.532 134.264 43.6755 134.44 43.6755H142.944C143.117 43.6755 143.26 43.5348 143.26 43.3588V35.1927C143.26 35.0194 143.401 34.876 143.577 34.876H148.288C148.462 34.876 148.605 35.0167 148.605 35.1927V57.2984C148.605 57.4716 148.465 57.6151 148.288 57.6151H143.577C143.404 57.6151 143.26 57.4743 143.26 57.2984V48.4068C143.26 48.2336 143.12 48.0902 142.944 48.0902H134.44C134.266 48.0902 134.123 48.2309 134.123 48.4068V57.2984C134.123 57.4716 133.982 57.6151 133.806 57.6151H129.095C128.921 57.6151 128.778 57.4743 128.778 57.2984V35.1927C128.778 35.0194 128.919 34.876 129.095 34.876Z" fill="#394C41"/>
<path d="M152.263 46.2795C152.263 38.9308 157.572 34.5134 164.334 34.5134C171.096 34.5134 176.406 38.9308 176.406 46.2795C176.406 53.6282 171.096 58.0104 164.334 58.0104C157.572 58.0104 152.263 53.6282 152.263 46.2795ZM170.996 46.1469C170.996 41.8297 168.127 39.0607 164.334 39.0607C160.542 39.0607 157.673 41.7945 157.673 46.1469C157.673 50.4993 160.542 53.2655 164.334 53.2655C168.127 53.2655 170.996 50.4966 170.996 46.1469Z" fill="#394C41"/>
<path d="M178.912 46.2795C178.912 38.9308 184.221 34.5134 190.983 34.5134C197.745 34.5134 203.055 38.9308 203.055 46.2795C203.055 53.6282 197.745 58.0104 190.983 58.0104C184.221 58.0104 178.912 53.6282 178.912 46.2795ZM197.648 46.1469C197.648 41.8297 194.779 39.0607 190.986 39.0607C187.193 39.0607 184.324 41.7945 184.324 46.1469C184.324 50.4993 187.193 53.2655 190.986 53.2655C194.779 53.2655 197.648 50.4966 197.648 46.1469Z" fill="#394C41"/>
<path d="M212.027 35.1926V52.8837C212.027 53.057 212.168 53.2004 212.344 53.2004H219.594C219.767 53.2004 219.911 53.3412 219.911 53.5171V57.3011C219.911 57.4743 219.77 57.6178 219.594 57.6178H207.032C206.858 57.6178 206.715 57.477 206.715 57.3011V35.1953C206.715 35.0221 206.856 34.8787 207.032 34.8787H211.71C211.884 34.8787 212.027 35.0194 212.027 35.1953V35.1926Z" fill="#394C41"/>
<path d="M77.769 29.6954L67.2768 15.0061L66.2094 13.5147L39.6931 0.116444C39.387 -0.0378383 39.024 -0.0378383 38.7179 0.116444L11.779 13.512L10.6872 15.0034L0.19777 29.6954C-0.143572 30.1745 -0.0325005 30.8349 0.452421 31.176C0.495766 31.2058 0.544529 31.2328 0.593292 31.2572L10.6872 36.2863V49.6358C10.6818 50.0472 10.9121 50.4234 11.2832 50.6021L34.1423 61.8864C34.6678 62.1516 35.318 61.9405 35.5808 61.4181C35.6594 61.2638 35.6973 61.096 35.6973 60.9201V52.9867C35.6865 51.7795 36.3448 50.6697 37.4148 50.0905C38.3901 49.56 39.5658 49.5492 40.5492 50.0607C41.6328 50.6291 42.3101 51.7389 42.3155 52.9569V60.8849C42.3101 61.4749 42.7896 61.9567 43.3829 61.9622C43.5536 61.9622 43.7188 61.9243 43.8705 61.8512L66.6808 50.5669C67.0519 50.3882 67.2795 50.012 67.2768 49.6006V36.2863L77.3762 31.2572C77.9071 30.9973 78.1212 30.3586 77.8584 29.8335C77.834 29.7847 77.8042 29.736 77.7744 29.6927L77.769 29.6954ZM38.7233 3.58645C39.0294 3.43217 39.3924 3.43217 39.6986 3.58645L62.7174 15.2497L40.5519 26.2822L38.9915 27.0537L37.4175 26.2714V26.2958L15.2683 15.2605L38.7233 3.58645ZM10.6845 32.8163L5.25287 30.1041C4.7219 29.8389 4.51059 29.1974 4.77879 28.6696C4.80317 28.6263 4.82755 28.583 4.85735 28.5397L10.6845 20.3789L12.7516 17.4827L36.6427 29.3733L28.5643 40.6901C28.2582 41.1205 27.6812 41.2639 27.2044 41.0284L13.8243 34.3672L10.6845 32.8136V32.8163ZM64.1343 47.7275C64.1397 48.1336 63.9094 48.5098 63.5437 48.6938L47.0049 56.8979C46.4793 57.1632 45.8292 56.9547 45.561 56.435C45.4824 56.2808 45.4391 56.1075 45.4445 55.9343V52.965C45.4255 50.0499 43.4073 47.5164 40.5492 46.8127C40.3298 46.7585 40.0995 46.7206 39.8774 46.6909V41.7051C39.8774 41.5373 40.0128 41.402 40.1835 41.402H42.2451C42.5864 41.402 42.86 41.1313 42.8655 40.7929V40.2381C42.8655 39.8997 42.5918 39.6291 42.2505 39.6291H40.1835C40.0128 39.6291 39.8774 39.4937 39.8774 39.3259V36.8168C39.8882 36.4839 39.6227 36.2051 39.2868 36.1942H38.7016C38.3657 36.1942 38.0921 36.4595 38.0867 36.7924V39.307C38.0867 39.4748 37.9512 39.6101 37.7806 39.6101H35.719C35.3776 39.6101 35.104 39.8808 35.104 40.2191V40.774C35.104 41.1069 35.383 41.3776 35.719 41.383H37.7806C37.9512 41.383 38.0867 41.5183 38.0867 41.6862V46.6557C37.8564 46.6855 37.6343 46.7234 37.4148 46.7802C34.5622 47.5029 32.5683 50.0472 32.5629 52.9623V55.9776C32.5683 56.5677 32.0888 57.0495 31.4955 57.0549C31.3249 57.0549 31.1596 57.017 31.0079 56.9439L14.4285 48.6857C14.0573 48.5071 13.8298 48.1308 13.8325 47.7194V37.8399L28.2176 44.9965C28.6944 45.232 29.2714 45.0885 29.5775 44.6581L37.423 33.6743L38.9644 31.4791L40.5302 33.6743L48.3811 44.6581C48.6872 45.0885 49.2697 45.232 49.7411 44.9965L64.1207 37.8399L64.1343 47.7248V47.7275ZM72.7057 30.1068L67.2741 32.8136L64.1397 34.3726L50.7597 41.0176C50.2829 41.2531 49.7058 41.1096 49.3997 40.6793L41.3159 29.3706L65.2071 17.48L67.2741 20.3762L73.1256 28.5369C73.4616 29.0187 73.3451 29.6819 72.8575 30.0148C72.8087 30.0473 72.7599 30.0771 72.7112 30.1014H72.7057V30.1068Z" fill="#394C41"/>
<path d="M113.816 7.44067H87.89C87.592 7.44067 87.3509 7.68157 87.3509 7.97931V30.9295C87.3509 31.2273 87.592 31.4682 87.89 31.4682H113.816C114.114 31.4682 114.355 31.2273 114.355 30.9295V7.97931C114.355 7.68157 114.114 7.44067 113.816 7.44067ZM110.037 14.692H108.086V13.7879H104.239V18.2296H108.777V20.1H104.239V25.1155H105.258V26.9182H100.91V25.1155H101.779V20.1H94.8523V25.1155H95.6352V26.9182H91.6719V25.1155H92.4548V13.7879H91.6719V11.988H95.6352V13.7879H94.8523V18.2323H101.779V13.7879H100.915V11.988H110.039V14.692H110.037Z" fill="#394C41"/>
</g>
<defs>
<clipPath id="clip0_1305_128">
<rect width="220" height="62" fill="white"/>
</clipPath>
</defs>
</svg>
