<svg width="266" height="61" viewBox="0 0 266 61" fill="none" xmlns="http://www.w3.org/2000/svg">
<g clip-path="url(#clip0_7_190)">
<path d="M41.5936 39.8089H39.5292C39.3763 39.8089 39.2234 39.6576 39.2234 39.5062V37.0087C39.2234 36.706 38.9175 36.4032 38.6117 36.4032H38.0765C37.7706 36.4032 37.4648 36.706 37.4648 37.0087V39.5062C37.4648 39.6576 37.3119 39.8089 37.159 39.8089H35.0946C34.7887 39.8089 34.4829 40.1117 34.4829 40.4144V40.9442C34.4829 41.2469 34.7887 41.5496 35.0946 41.5496H37.159C37.3119 41.5496 37.4648 41.701 37.4648 41.8524V47.3772L38.3823 47.8313L39.2998 47.3772V41.8524C39.2998 41.701 39.4527 41.5496 39.6056 41.5496H41.67C41.9759 41.5496 42.2817 41.2469 42.2817 40.9442V40.4144C42.2052 40.1117 41.9759 39.8089 41.5936 39.8089Z" fill="#BB895B"/>
<path d="M76.5355 29.2141L66.2135 14.7588L65.1431 13.3208L39.0707 0.152052C38.7648 0.000687253 38.3825 0.000687253 38.0767 0.152052L11.622 13.3208L10.5516 14.7588L0.229632 29.2141C-0.152661 29.7439 0.0767148 30.5007 0.611926 30.7277L10.5516 35.6471V48.8158C10.5516 49.1942 10.7809 49.5726 11.1632 49.724L33.6421 60.8493C34.3302 61.2277 35.1713 60.698 35.1713 59.9411V58.3518V52.1458C35.1713 50.9349 35.8594 49.8754 36.8534 49.3456C37.3121 49.1185 37.8473 48.9672 38.3825 48.9672C38.9178 48.9672 39.453 49.1185 39.9117 49.3456C40.9821 49.8754 41.6703 50.9349 41.6703 52.2215V58.2761V59.9411C41.6703 60.698 42.5113 61.2277 43.1994 60.8493L65.6783 49.724C66.0606 49.5726 66.29 49.1942 66.29 48.8158V35.7228L76.2296 30.8034C76.6884 30.5007 76.9177 29.7439 76.5355 29.2141ZM38.0767 3.55776C38.3825 3.40639 38.7648 3.40639 39.0707 3.55776L61.7025 15.0615L39.9117 25.8841L38.3825 26.6409L36.8534 25.8841L14.9862 14.9858L38.0767 3.55776ZM10.5516 32.3171L5.19945 29.6682C4.58778 29.3655 4.43486 28.6843 4.81716 28.1545L10.5516 20.1322L12.6159 17.2563L36.1652 28.987L28.1371 40.0367C27.8312 40.4908 27.296 40.5664 26.7608 40.3394L13.6099 33.755L10.5516 32.3171ZM63.1552 46.9994C63.1552 47.3779 62.9258 47.7563 62.5435 47.9076L46.2578 56.0056C45.5697 56.3841 44.7286 55.8543 44.7286 55.0975V52.1458C44.7286 49.1942 42.6642 46.6967 39.9117 46.0156C39.453 45.8642 38.9178 45.8642 38.3825 45.8642C37.8473 45.8642 37.3121 45.9399 36.8534 46.0913C34.1009 46.7724 32.1129 49.2699 32.1129 52.1458V55.0975C32.1129 55.8543 31.2719 56.3841 30.5838 56.0056L14.2216 47.9076C13.8393 47.7563 13.6099 47.3779 13.6099 46.9994V37.2364L27.7548 44.2749C28.2135 44.5019 28.8252 44.3506 29.131 43.9722L36.8534 33.1496L38.3825 30.9548L39.9117 33.1496L47.6341 43.9722C47.9399 44.4262 48.4751 44.5019 49.0103 44.2749L63.1552 37.2364V46.9994ZM71.5656 29.6682L66.2135 32.3171L63.1552 33.8307L50.0043 40.4151C49.5455 40.6421 48.9338 40.4908 48.628 40.1124L40.6763 28.9114L64.2256 17.1806L66.29 20.0565L72.0244 28.0789C72.3302 28.6086 72.1008 29.3655 71.5656 29.6682Z" fill="#BB895B"/>
<path d="M87.0101 34.5112C87.0101 34.5112 89.2274 36.4789 91.6741 36.4789C92.6681 36.4789 93.7385 36.1005 93.7385 34.9653C93.7385 32.6948 85.0222 32.7705 85.0222 26.8672C85.0222 23.3102 88.0041 20.964 91.9035 20.964C96.1087 20.964 98.1731 23.1588 98.1731 23.1588L96.1852 27.0186C96.1852 27.0186 94.1972 25.3536 91.9035 25.3536C90.9095 25.3536 89.8391 25.8077 89.8391 26.8672C89.8391 29.2891 98.5554 28.835 98.5554 34.8896C98.5554 38.0682 96.1087 40.8685 91.7506 40.8685C87.163 40.8685 84.6399 38.1439 84.6399 38.1439L87.0101 34.5112Z" fill="#354866"/>
<path d="M111.63 20.964C116.447 20.964 118.893 23.6886 118.893 23.6886L116.676 27.2457C116.676 27.2457 114.535 25.2779 111.783 25.2779C108.036 25.2779 106.278 28.0025 106.278 30.727C106.278 33.603 108.189 36.4789 111.783 36.4789C114.688 36.4789 116.906 34.1328 116.906 34.1328L119.352 37.5385C119.352 37.5385 116.6 40.7928 111.553 40.7928C105.513 40.7928 101.384 36.5546 101.384 30.8027C101.461 25.2779 105.819 20.964 111.63 20.964Z" fill="#354866"/>
<path d="M123.405 21.3424H128.145V28.9864H135.179V21.3424H139.92V40.5658H135.179V33.0732H128.145V40.5658H123.405V21.3424Z" fill="#354866"/>
<path d="M154.447 20.964C160.334 20.964 164.616 25.2779 164.616 30.8027C164.616 36.4789 160.334 40.8685 154.447 40.8685C148.559 40.8685 144.278 36.4789 144.278 30.8027C144.278 25.2779 148.559 20.964 154.447 20.964ZM154.447 36.5546C157.352 36.5546 159.646 34.0571 159.646 30.8027C159.646 27.6241 157.276 25.2779 154.447 25.2779C151.541 25.2779 149.248 27.6241 149.248 30.8027C149.171 34.0571 151.541 36.5546 154.447 36.5546Z" fill="#354866"/>
<path d="M177.69 20.964C183.578 20.964 187.859 25.2779 187.859 30.8027C187.859 36.4789 183.578 40.8685 177.69 40.8685C171.803 40.8685 167.521 36.4789 167.521 30.8027C167.521 25.2779 171.803 20.964 177.69 20.964ZM177.69 36.5546C180.596 36.5546 182.889 34.0571 182.889 30.8027C182.889 27.6241 180.519 25.2779 177.69 25.2779C174.785 25.2779 172.491 27.6241 172.491 30.8027C172.491 34.0571 174.785 36.5546 177.69 36.5546Z" fill="#354866"/>
<path d="M192.141 21.3424H196.881V36.4789H204.833V40.4901H192.141V21.3424Z" fill="#354866"/>
<path d="M208.503 21.3424H215.614C219.513 21.3424 222.189 23.0831 222.189 26.3375C222.189 27.9268 221.425 29.5918 219.972 30.4243V30.5C222.189 31.1811 223.03 33.1489 223.03 34.8139C223.03 38.9764 219.513 40.5658 215.614 40.5658H208.503V21.3424ZM215.69 28.7593C216.913 28.7593 217.372 27.9268 217.372 27.0186C217.372 26.1104 216.837 25.3536 215.614 25.3536H213.243V28.7593H215.69ZM216.072 36.4789C217.449 36.4789 218.137 35.5707 218.137 34.4355C218.137 33.3003 217.449 32.4677 216.072 32.4677H213.167V36.4789H216.072Z" fill="#354866"/>
<path d="M236.258 20.964C242.145 20.964 246.427 25.2779 246.427 30.8027C246.427 36.4789 242.145 40.8685 236.258 40.8685C230.37 40.8685 226.089 36.4789 226.089 30.8027C226.165 25.2779 230.447 20.964 236.258 20.964ZM236.258 36.5546C239.163 36.5546 241.457 34.0571 241.457 30.8027C241.457 27.6241 239.087 25.2779 236.258 25.2779C233.429 25.2779 231.058 27.6241 231.058 30.8027C231.058 34.0571 233.429 36.5546 236.258 36.5546Z" fill="#354866"/>
<path d="M254.455 30.9541L248.567 21.2668H253.996L256.137 25.2022C256.825 26.4132 257.36 27.6998 257.36 27.6998H257.437C257.437 27.6998 257.972 26.4888 258.66 25.2022L260.801 21.2668H266.229L260.266 30.9541L266.153 40.4901H260.724L258.507 36.4789C257.819 35.268 257.284 34.0571 257.284 34.0571H257.207C257.207 34.0571 256.672 35.268 255.984 36.4789L253.767 40.4901H248.491L254.455 30.9541Z" fill="#354866"/>
</g>
<defs>
<clipPath id="clip0_7_190">
<rect width="266" height="61" fill="white"/>
</clipPath>
</defs>
</svg>
