<svg width="442" height="576" viewBox="0 0 442 576" fill="none" xmlns="http://www.w3.org/2000/svg">
<g clip-path="url(#clip0_6_109)">
<path d="M713.861 275.872L617.586 139.613L607.602 126.058L364.418 1.92673C361.566 0.499929 358 0.499929 355.148 1.92673L108.399 126.058L98.4145 139.613L2.13955 275.872C-1.42619 280.866 0.713256 288 5.70529 290.14L98.4145 336.511V460.643C98.4145 464.21 100.554 467.777 104.12 469.203L313.785 574.073C320.203 577.64 328.048 572.646 328.048 565.512V550.531V492.032C328.048 480.618 334.466 470.63 343.737 465.636C348.016 463.496 353.008 462.069 358 462.069C362.992 462.069 367.984 463.496 372.263 465.636C382.247 470.63 388.665 480.618 388.665 492.746V549.818V565.512C388.665 572.646 396.51 577.64 402.928 574.073L612.594 469.203C616.159 467.777 618.299 464.21 618.299 460.643V337.224L711.008 290.854C715.287 288 717.426 280.866 713.861 275.872ZM355.148 34.0297C358 32.6029 361.566 32.6029 364.418 34.0297L575.51 142.466L372.263 244.483L358 251.617L343.737 244.483L139.777 141.753L355.148 34.0297ZM98.4145 305.122L48.4941 280.153C42.789 277.299 41.3627 270.878 44.9284 265.885L98.4145 190.264L117.669 163.155L337.319 273.732L262.438 377.888C259.586 382.169 254.594 382.882 249.602 380.742L126.94 318.676L98.4145 305.122ZM589.06 443.521C589.06 447.088 586.92 450.655 583.355 452.082L431.454 528.416C425.036 531.982 417.191 526.989 417.191 519.855V492.032C417.191 464.21 397.936 440.667 372.263 434.247C370.124 433.533 367.984 433.533 365.845 432.82V395.01C365.845 393.583 367.271 392.156 368.697 392.156H387.952C390.805 392.156 393.657 389.303 393.657 386.449V381.455C393.657 378.602 390.805 375.748 387.952 375.748H368.697C367.271 375.748 365.845 374.321 365.845 372.894V349.352C365.845 346.499 362.992 343.645 360.14 343.645H355.148C352.295 343.645 349.442 346.499 349.442 349.352V372.894C349.442 374.321 348.016 375.748 346.59 375.748H327.335C324.482 375.748 321.63 378.602 321.63 381.455V386.449C321.63 389.303 324.482 392.156 327.335 392.156H346.59C348.016 392.156 349.442 393.583 349.442 395.01V432.82C347.303 432.82 345.163 433.533 343.024 434.247C317.351 440.667 298.809 464.21 298.809 491.319V519.141C298.809 526.275 290.964 531.269 284.546 527.702L132.646 452.082C129.08 450.655 126.94 447.088 126.94 443.521V351.492L258.873 417.839C263.151 419.979 268.857 418.552 271.709 414.985L343.737 312.969L358 292.28L372.263 312.969L444.291 414.985C447.144 419.265 452.136 419.979 457.128 417.839L589.06 351.492V443.521ZM667.506 280.153L617.586 305.122L589.06 319.389L466.399 381.455C462.12 383.595 456.414 382.169 453.562 378.602L379.395 273.019L599.044 162.442L618.299 189.551L671.785 265.171C674.638 270.165 672.498 277.299 667.506 280.153Z" fill="#34412F"/>
</g>
<defs>
<clipPath id="clip0_6_109">
<rect width="716" height="575" fill="white" transform="translate(0 0.5)"/>
</clipPath>
</defs>
</svg>
