<svg width="121" height="26" viewBox="0 0 121 26" fill="none" xmlns="http://www.w3.org/2000/svg">
<path d="M40.9304 12.2365H42.4763V2.7009H40.9304V0.859131H46.43V2.71575H44.8624V6.51069H50.7439V2.7009H49.1799V0.859131H54.6795V2.71575H53.13V12.2365H54.6795V14.0597H49.1799V12.2365H50.7439V8.46385H44.8624V12.2365H46.43V14.0597H40.9304V12.2365Z" fill="#BB895B"/>
<path d="M56.4983 12.2365H58.0478V2.7009H56.4983V0.859131H66.0972V4.26046H64.0566V2.8123H60.4193V6.43642H64.6822V8.38959H60.4302V12.1028H64.3294V10.6175H66.3554V14.0597H56.4983V12.2365Z" fill="#BB895B"/>
<path d="M68.1523 12.2365H69.7018V2.70085H68.1523V0.859082H73.852C74.6805 0.82874 75.509 0.922569 76.3108 1.13757C77.7476 1.6203 78.6969 2.81225 78.6969 4.66887C78.6969 6.52549 77.7476 7.81027 76.2563 8.33384V8.37097C76.53 8.53464 76.7541 8.77239 76.9037 9.05792L78.3986 11.8094C78.4837 11.9635 78.613 12.087 78.7692 12.1634C78.9253 12.2398 79.1008 12.2653 79.2716 12.2365H79.6899V14.0597H78.1804C77.0892 14.0597 76.7764 13.8369 76.3617 13.0719L74.5213 9.67061C74.2485 9.16932 74.012 9.00222 73.2664 9.00222H72.0806V12.2365H73.5756V14.0597H68.1523V12.2365ZM74.2339 7.03792C75.4924 7.03792 76.3108 6.29527 76.3108 4.86567C76.3108 4.00791 76.0017 3.33953 75.2924 3.04247C74.8285 2.8621 74.3335 2.77998 73.8375 2.80111H72.0879V7.04906L74.2339 7.03792Z" fill="#BB895B"/>
<path d="M81.2466 12.5187L87.4518 3.42498C87.611 3.19517 87.7939 2.98353 87.9974 2.79373V2.7566C87.7562 2.78997 87.5133 2.80857 87.27 2.8123H83.3562V4.79888H81.3375V0.859131H90.8782V2.38527L84.6693 11.4939C84.5102 11.7237 84.3272 11.9353 84.1237 12.1251V12.1474C84.3709 12.1133 84.6199 12.0947 84.8693 12.0917H89.0377V10.0605H91.0891V14.0597H81.2684L81.2466 12.5187Z" fill="#BB895B"/>
<path d="M99.4731 0.63623C103.296 0.63623 106.173 3.60683 106.173 7.36463C106.194 8.2765 106.036 9.18341 105.708 10.0321C105.381 10.8807 104.891 11.654 104.266 12.3064C103.642 12.9589 102.896 13.4773 102.073 13.8312C101.249 14.1852 100.365 14.3675 99.4713 14.3675C98.5778 14.3675 97.6933 14.1852 96.8699 13.8312C96.0464 13.4773 95.3006 12.9589 94.6762 12.3064C94.0519 11.654 93.5616 10.8807 93.2341 10.0321C92.9067 9.18341 92.7487 8.2765 92.7695 7.36463C92.7695 3.60683 95.6466 0.63623 99.4731 0.63623ZM99.4731 12.1473C101.805 12.1473 103.714 10.0827 103.714 7.36834C103.714 4.76907 101.805 2.77877 99.4731 2.77877C97.1416 2.77877 95.2283 4.76536 95.2283 7.36834C95.2283 10.079 97.1416 12.1473 99.4731 12.1473Z" fill="#BB895B"/>
<path d="M114.55 0.63623C116.863 0.63623 119.613 1.56454 119.613 3.2355V5.0587H117.431V4.09326C117.431 3.18352 116.027 2.71936 114.644 2.71936C111.895 2.71936 110.181 4.50172 110.181 7.30893C110.181 10.1161 111.895 12.1993 114.754 12.1993C115.79 12.1993 117.722 11.9208 117.722 10.8254V9.41062H115.386V7.58742H119.904V11.568C119.904 13.5732 116.441 14.2824 114.532 14.2824C110.56 14.2824 107.719 11.3452 107.719 7.40176C107.719 3.4583 110.523 0.63623 114.55 0.63623Z" fill="#BB895B"/>
<path d="M41.3851 24.5275H42.1417V19.7003H41.3851V19.0208H45.5826V20.4838H44.8551V19.7745H43.0365V21.828H45.1316V22.5446H43.0365V24.5275H43.8585V25.2107H41.4215L41.3851 24.5275Z" fill="#CCCCCC"/>
<path d="M51.4716 18.9165C51.8808 18.9091 52.2873 18.9854 52.6671 19.141C53.047 19.2967 53.3924 19.5285 53.683 19.8227C53.9736 20.1169 54.2034 20.4677 54.359 20.8541C54.5146 21.2406 54.5927 21.655 54.5887 22.0728C54.603 22.4996 54.533 22.9249 54.3829 23.3235C54.2328 23.7221 54.0056 24.0858 53.7149 24.3929C53.4242 24.7 53.0759 24.9442 52.6908 25.111C52.3057 25.2778 51.8917 25.3637 51.4734 25.3637C51.0551 25.3637 50.641 25.2778 50.2559 25.111C49.8708 24.9442 49.5226 24.7 49.2319 24.3929C48.9412 24.0858 48.714 23.7221 48.5639 23.3235C48.4137 22.9249 48.3437 22.4996 48.358 22.0728C48.3536 21.6551 48.4312 21.2408 48.5864 20.8544C48.7416 20.468 48.9711 20.1172 49.2614 19.8229C49.5517 19.5286 49.8969 19.2968 50.2765 19.1411C50.6562 18.9854 51.0625 18.909 51.4716 18.9165ZM51.4716 24.5347C51.7767 24.5242 52.0767 24.4519 52.3543 24.3222C52.6319 24.1924 52.8814 24.0076 53.0885 23.7786C53.2956 23.5496 53.4561 23.2809 53.5606 22.988C53.6652 22.6952 53.7117 22.3841 53.6976 22.0728C53.7097 21.7664 53.6611 21.4606 53.5546 21.1739C53.4481 20.8871 53.2859 20.6253 53.0779 20.4042C52.8698 20.183 52.6201 20.007 52.3438 19.8868C52.0674 19.7666 51.7701 19.7046 51.4697 19.7046C51.1694 19.7046 50.8721 19.7666 50.5957 19.8868C50.3194 20.007 50.0697 20.183 49.8616 20.4042C49.6535 20.6253 49.4914 20.8871 49.3849 21.1739C49.2784 21.4606 49.2298 21.7664 49.2419 22.0728C49.2277 22.3844 49.2744 22.6958 49.3792 22.9889C49.484 23.2819 49.6448 23.5508 49.8523 23.7799C50.0597 24.0089 50.3097 24.1936 50.5877 24.3232C50.8657 24.4528 51.1661 24.5247 51.4716 24.5347Z" fill="#CCCCCC"/>
<path d="M58.0514 19.6966H57.2876V19.0208H59.6737V19.6966H58.9098V22.9159C58.8958 23.2663 58.975 23.6141 59.139 23.9222C59.2857 24.1326 59.4827 24.301 59.7113 24.4115C59.9399 24.522 60.1924 24.5709 60.4448 24.5535C60.6991 24.5715 60.9536 24.5209 61.1828 24.4069C61.412 24.2928 61.6078 24.1193 61.7506 23.9037C61.913 23.5975 61.9934 23.2529 61.9834 22.9048V19.6966H61.2195V19.0208H63.5983V19.6966H62.8418V22.9159C62.8491 23.4429 62.7021 23.96 62.4198 24.4012C62.1853 24.702 61.8836 24.9409 61.5399 25.0979C61.1962 25.2549 60.8207 25.3254 60.4448 25.3036C60.0671 25.323 59.6902 25.2514 59.3446 25.0947C58.9989 24.9379 58.6943 24.7004 58.4552 24.4012C58.1711 23.9617 58.0298 23.4421 58.0514 22.9159V19.6966Z" fill="#CCCCCC"/>
<path d="M66.3772 24.5275H67.1338V19.7003H66.3772V19.0208H67.9849L70.9638 23.4766C71.0417 23.6202 71.1097 23.7691 71.1675 23.9222H71.1966C71.1731 23.7573 71.1586 23.5912 71.153 23.4247V19.7114H70.3782V19.0208H72.7752V19.6966H72.0114V25.2107H71.1675L68.1886 20.7548C68.1075 20.613 68.0393 20.4638 67.9849 20.3092H67.9594C67.9811 20.4754 67.992 20.6429 67.9922 20.8105V24.5238H68.7742V25.207H66.3772V24.5275Z" fill="#CCCCCC"/>
<path d="M75.634 24.5275H76.3906V19.7003H75.634V19.0207H78.2165C78.6506 19.0033 79.0848 19.0533 79.5041 19.1693C80.6644 19.5406 81.421 20.61 81.421 22.1139C81.421 23.6177 80.6935 24.6574 79.5041 25.0436C79.0901 25.1686 78.659 25.2251 78.2274 25.2107H75.634V24.5275ZM78.1802 24.4903C78.5298 24.5051 78.8791 24.4522 79.2095 24.3344C80.0243 24.0447 80.5299 23.2464 80.5299 22.1064C80.5299 20.9665 80.0243 20.1718 79.2168 19.8785C78.8824 19.7679 78.5312 19.7201 78.1802 19.7374H77.2672V24.4903H78.1802Z" fill="#CCCCCC"/>
<path d="M83.8945 24.5275H84.4765L86.4079 19.0208H87.3791L89.3105 24.5275H89.8961V25.2107H87.7901V24.5275H88.4339L87.9647 23.1499H85.815L85.3458 24.5275H85.9969V25.2107H83.8945V24.5275ZM87.7501 22.4481L87.0226 20.3018C86.9701 20.1479 86.9347 19.9885 86.9171 19.8265H86.8917C86.8701 19.9875 86.8361 20.1464 86.7898 20.3018L86.0405 22.4481H87.7501Z" fill="#CCCCCC"/>
<path d="M93.2716 24.5275H94.0354V19.7411H92.6169V20.688H91.8894V19.0208H97.0908V20.688H96.3269V19.7411H94.9011V24.5275H95.6649V25.2107H93.2716V24.5275Z" fill="#CCCCCC"/>
<path d="M99.8368 24.5275H100.593V19.7003H99.8368V19.0208H102.216V19.6966H101.452V24.5238H102.216V25.207H99.8368V24.5275Z" fill="#CCCCCC"/>
<path d="M108.185 18.9166C108.594 18.9096 109 18.9863 109.379 19.1422C109.759 19.298 110.104 19.5298 110.395 19.8239C110.685 20.1181 110.915 20.4686 111.071 20.8548C111.227 21.241 111.305 21.6552 111.302 22.0728C111.302 22.9168 110.973 23.7262 110.389 24.323C109.804 24.9198 109.011 25.2551 108.185 25.2551C107.358 25.2551 106.565 24.9198 105.98 24.323C105.396 23.7262 105.067 22.9168 105.067 22.0728C105.063 21.6549 105.141 21.2403 105.296 20.8536C105.451 20.4669 105.681 20.116 105.972 19.8216C106.263 19.5273 106.608 19.2955 106.988 19.1401C107.368 18.9846 107.775 18.9086 108.185 18.9166ZM108.185 24.5347C108.489 24.5243 108.789 24.452 109.067 24.3222C109.344 24.1923 109.593 24.0075 109.8 23.7784C110.007 23.5494 110.167 23.2806 110.271 22.9878C110.375 22.695 110.422 22.384 110.407 22.0728C110.419 21.7664 110.37 21.4607 110.264 21.174C110.157 20.8872 109.995 20.6254 109.787 20.4042C109.579 20.1831 109.329 20.0071 109.053 19.8869C108.777 19.7667 108.479 19.7047 108.179 19.7047C107.879 19.7047 107.581 19.7667 107.305 19.8869C107.029 20.0071 106.779 20.1831 106.571 20.4042C106.363 20.6254 106.201 20.8872 106.094 21.174C105.988 21.4607 105.939 21.7664 105.951 22.0728C105.937 22.3848 105.984 22.6965 106.089 22.9898C106.194 23.2831 106.355 23.5521 106.563 23.7812C106.771 24.0104 107.021 24.195 107.3 24.3243C107.578 24.4537 107.879 24.5252 108.185 24.5347Z" fill="#CCCCCC"/>
<path d="M114.175 24.5275H114.932V19.7003H114.175V19.0208H115.779L118.762 23.4766C118.84 23.6202 118.908 23.7691 118.965 23.9222H118.991C118.967 23.7573 118.953 23.5912 118.947 23.4247V19.7114H118.176V19.0208H120.573V19.6966H119.824V25.2107H118.98L116.001 20.7548C115.918 20.6136 115.848 20.4643 115.794 20.3092H115.768C115.792 20.4753 115.804 20.6428 115.805 20.8105V24.5238H116.587V25.207H114.19L114.175 24.5275Z" fill="#CCCCCC"/>
<path d="M16.0914 4.29303H18.9649V11.3556H8.13659V4.29303H11.0101V0.884277H0.883789V4.29303H3.75726V21.7973H0.883789V25.2097H11.0101V21.7973H8.13659V14.8721H18.9649V21.7973H15.9568V25.2097H26.6832V21.7973H23.4424V14.8721H31.1644V11.3556H23.4424V4.29303H29.4585V6.40958H33.1358V4.29303V1.12192V0.884277H16.0914V4.29303Z" fill="#BB895B"/>
</svg>
