<svg width="716" height="575" viewBox="0 0 716 575" fill="none" xmlns="http://www.w3.org/2000/svg">
<path d="M713.861 275.372L617.586 139.113L607.602 125.558L364.418 1.42673C361.566 -7.12872e-05 358 -7.12872e-05 355.148 1.42673L108.399 125.558L98.4145 139.113L2.13955 275.372C-1.42619 280.366 0.713256 287.5 5.70529 289.64L98.4145 336.011V460.143C98.4145 463.71 100.554 467.277 104.12 468.703L313.785 573.573C320.203 577.14 328.048 572.146 328.048 565.012V550.031V491.532C328.048 480.118 334.466 470.13 343.737 465.136C348.016 462.996 353.008 461.569 358 461.569C362.992 461.569 367.984 462.996 372.263 465.136C382.247 470.13 388.665 480.118 388.665 492.246V549.318V565.012C388.665 572.146 396.51 577.14 402.928 573.573L612.594 468.703C616.159 467.277 618.299 463.71 618.299 460.143V336.724L711.008 290.354C715.287 287.5 717.426 280.366 713.861 275.372ZM355.148 33.5297C358 32.1029 361.566 32.1029 364.418 33.5297L575.51 141.966L372.263 243.983L358 251.117L343.737 243.983L139.777 141.253L355.148 33.5297ZM98.4145 304.622L48.4941 279.653C42.789 276.799 41.3627 270.378 44.9284 265.385L98.4145 189.764L117.669 162.655L337.319 273.232L262.438 377.388C259.586 381.669 254.594 382.382 249.602 380.242L126.94 318.176L98.4145 304.622ZM589.06 443.021C589.06 446.588 586.92 450.155 583.355 451.582L431.454 527.916C425.036 531.482 417.191 526.489 417.191 519.355V491.532C417.191 463.71 397.936 440.167 372.263 433.747C370.124 433.033 367.984 433.033 365.845 432.32V394.51C365.845 393.083 367.271 391.656 368.697 391.656H387.952C390.805 391.656 393.657 388.803 393.657 385.949V380.955C393.657 378.102 390.805 375.248 387.952 375.248H368.697C367.271 375.248 365.845 373.821 365.845 372.394V348.852C365.845 345.999 362.992 343.145 360.14 343.145H355.148C352.295 343.145 349.442 345.999 349.442 348.852V372.394C349.442 373.821 348.016 375.248 346.59 375.248H327.335C324.482 375.248 321.63 378.102 321.63 380.955V385.949C321.63 388.803 324.482 391.656 327.335 391.656H346.59C348.016 391.656 349.442 393.083 349.442 394.51V432.32C347.303 432.32 345.163 433.033 343.024 433.747C317.351 440.167 298.809 463.71 298.809 490.819V518.641C298.809 525.775 290.964 530.769 284.546 527.202L132.646 451.582C129.08 450.155 126.94 446.588 126.94 443.021V350.992L258.873 417.339C263.151 419.479 268.857 418.052 271.709 414.485L343.737 312.469L358 291.78L372.263 312.469L444.291 414.485C447.144 418.765 452.136 419.479 457.128 417.339L589.06 350.992V443.021ZM667.506 279.653L617.586 304.622L589.06 318.889L466.399 380.955C462.12 383.095 456.414 381.669 453.562 378.102L379.395 272.519L599.044 161.942L618.299 189.051L671.785 264.671C674.638 269.665 672.498 276.799 667.506 279.653Z" fill="#283B59"/>
</svg>
