<svg width="236" height="152" viewBox="0 0 236 152" fill="none" xmlns="http://www.w3.org/2000/svg">
<g clip-path="url(#clip0_7_273)">
<path d="M3.71517 143.75C3.71517 143.75 6.56499 146.378 9.70709 146.378C10.9493 146.378 12.3377 145.867 12.3377 144.407C12.3377 141.414 1.0115 141.56 1.0115 133.821C1.0115 129.222 4.88433 126.156 9.9263 126.156C15.3336 126.156 18.0373 129.003 18.0373 129.003L15.4067 134.04C15.4067 134.04 12.8492 131.85 9.85323 131.85C8.61101 131.85 7.14956 132.434 7.14956 133.821C7.14956 136.961 18.4757 136.449 18.4757 144.334C18.4757 148.496 15.2606 152.146 9.63402 152.146C3.71517 152.146 0.5 148.569 0.5 148.569L3.71517 143.75Z" fill="white"/>
<path d="M35.5746 126.083C41.7857 126.083 45.0009 129.66 45.0009 129.66L42.1511 134.259C42.1511 134.259 39.3744 131.704 35.8669 131.704C31.0441 131.704 28.7789 135.281 28.7789 138.859C28.7789 142.582 31.2634 146.378 35.8669 146.378C39.6667 146.378 42.5165 143.312 42.5165 143.312L45.6586 147.839C45.6586 147.839 42.078 152.073 35.5746 152.073C27.6828 152.073 22.4216 146.524 22.4216 139.078C22.4216 131.704 28.0482 126.083 35.5746 126.083Z" fill="white"/>
<path d="M50.8467 126.521H56.9847V136.522H66.1188V126.448H72.2568V151.562H66.1188V141.706H56.9847V151.562H50.8467V126.521Z" fill="white"/>
<path d="M90.9633 126.083C98.5628 126.083 104.116 131.704 104.116 138.859C104.116 146.232 98.5628 152 90.9633 152C83.3638 152 77.8103 146.232 77.8103 138.859C77.8834 131.704 83.4369 126.083 90.9633 126.083ZM90.9633 146.378C94.69 146.378 97.759 143.166 97.759 138.859C97.759 134.77 94.763 131.631 90.9633 131.631C87.1635 131.631 84.1676 134.697 84.1676 138.859C84.2406 143.166 87.2366 146.378 90.9633 146.378Z" fill="white"/>
<path d="M121.142 126.083C128.742 126.083 134.295 131.704 134.295 138.859C134.295 146.232 128.742 152 121.142 152C113.543 152 107.989 146.232 107.989 138.859C107.989 131.704 113.543 126.083 121.142 126.083ZM121.142 146.378C124.869 146.378 127.938 143.166 127.938 138.859C127.938 134.77 124.942 131.631 121.142 131.631C117.342 131.631 114.346 134.697 114.346 138.859C114.346 143.166 117.342 146.378 121.142 146.378Z" fill="white"/>
<path d="M139.849 126.521H145.987V146.378H156.217V151.635H139.776V126.521H139.849Z" fill="white"/>
<path d="M161.039 126.521H170.247C175.289 126.521 178.796 128.784 178.796 133.091C178.796 135.208 177.773 137.326 175.873 138.421V138.494C178.723 139.37 179.819 141.925 179.819 144.115C179.819 149.591 175.289 151.562 170.247 151.562H161.039V126.521ZM170.32 136.23C171.854 136.23 172.512 135.135 172.512 133.894C172.512 132.726 171.854 131.777 170.173 131.777H167.104V136.23H170.32ZM170.904 146.305C172.731 146.305 173.608 145.064 173.608 143.677C173.608 142.29 172.731 141.122 170.977 141.122H167.251V146.305H170.904Z" fill="white"/>
<path d="M196.991 126.083C204.59 126.083 210.144 131.704 210.144 138.859C210.144 146.232 204.59 152 196.991 152C189.391 152 183.838 146.232 183.838 138.859C183.838 131.704 189.391 126.083 196.991 126.083ZM196.991 146.378C200.718 146.378 203.787 143.166 203.787 138.859C203.787 134.77 200.791 131.631 196.991 131.631C193.191 131.631 190.195 134.697 190.195 138.859C190.268 143.166 193.264 146.378 196.991 146.378Z" fill="white"/>
<path d="M220.52 139.151L212.848 126.521H219.863L222.639 131.704C223.516 133.31 224.174 134.916 224.174 134.916H224.247C224.247 134.916 224.905 133.31 225.781 131.704L228.558 126.521H235.573L227.901 139.151L235.573 151.635H228.704L225.854 146.378C224.978 144.772 224.32 143.239 224.32 143.239H224.101C224.101 143.239 223.443 144.772 222.566 146.378L219.716 151.635H212.921L220.52 139.151Z" fill="white"/>
<path d="M187.711 53.1489L169.077 26.8665L167.178 24.1652H167.105L120.265 0.21902C119.754 -0.0730067 119.096 -0.0730067 118.512 0.21902L70.7224 24.1652H70.6493L68.7494 26.8665L50.1891 53.1489C49.5314 54.098 49.8237 55.4121 50.9198 55.9231L68.8225 64.976V88.8492C68.8225 89.5792 69.2609 90.2363 69.8455 90.5283L110.401 110.751C111.643 111.408 113.177 110.459 113.177 109.072V106.152V94.9087C113.177 92.7185 114.42 90.7474 116.246 89.7983C117.05 89.3602 118.073 89.0682 119.096 89.0682C120.119 89.0682 120.996 89.2872 121.8 89.7253C123.627 90.6744 124.942 92.6455 124.942 94.9087V106.079V109.072C124.942 110.459 126.403 111.408 127.719 110.751L168.128 90.5283C168.785 90.2363 169.151 89.5792 169.151 88.8492V64.976L187.053 55.9962C188.076 55.4121 188.442 54.098 187.711 53.1489ZM118.512 6.42459C119.023 6.13257 119.681 6.13257 120.265 6.42459L161.113 27.3045L121.8 47.0163L119.023 48.4035L116.246 47.0163V47.0893L77.0066 27.3775L118.512 6.42459ZM68.8225 58.6974L59.177 53.879C58.154 53.3679 57.7886 52.0538 58.4463 51.1047L68.7494 36.5034L72.403 31.3199L114.785 52.5648L100.463 72.8607C99.9512 73.6638 98.9282 73.8828 98.0513 73.4448L74.3029 61.5447L68.8225 58.6974ZM163.597 85.4179C163.597 86.1479 163.159 86.805 162.574 87.097L133.272 101.844C132.03 102.501 130.495 101.552 130.495 100.165V94.8357C130.495 89.5062 126.769 84.9798 121.8 83.7387C121.434 83.6657 120.996 83.5927 120.631 83.5197V74.6129C120.631 74.3208 120.85 74.1018 121.142 74.1018H124.796C125.38 74.1018 125.892 73.5908 125.892 73.0067V71.9846C125.892 71.4006 125.38 70.8895 124.796 70.8895H121.142C120.85 70.8895 120.631 70.6705 120.631 70.3785V65.9251C120.631 65.341 120.119 64.83 119.535 64.83H118.512C117.927 64.83 117.415 65.341 117.415 65.9251V70.3785C117.415 70.6705 117.196 70.8895 116.904 70.8895H113.25C112.666 70.8895 112.154 71.4006 112.154 71.9846V73.0067C112.154 73.5908 112.666 74.1018 113.25 74.1018H116.904C117.196 74.1018 117.415 74.3208 117.415 74.6129V83.5197C116.977 83.5927 116.612 83.6657 116.246 83.7387C111.277 84.9798 107.624 89.5062 107.624 94.8357V100.165C107.624 101.552 106.162 102.501 104.847 101.844L75.4721 87.097C74.8144 86.805 74.449 86.1479 74.449 85.4179V67.7502L99.9512 80.5264C100.828 80.9645 101.851 80.6724 102.363 79.9424L116.246 60.3036L119.023 56.3612L121.8 60.3036L135.684 79.9424C136.195 80.7454 137.218 80.9645 138.095 80.5264L163.597 67.7502V85.4179ZM178.796 53.879L169.151 58.6974L163.597 61.4717L139.849 73.3718C138.972 73.8098 137.949 73.5178 137.437 72.7877L123.115 52.5648L165.497 31.3199L169.151 36.5034L179.454 51.1047C180.184 52.0538 179.819 53.3679 178.796 53.879Z" fill="#E9B687"/>
</g>
<defs>
<clipPath id="clip0_7_273">
<rect width="235" height="152" fill="white" transform="translate(0.5)"/>
</clipPath>
</defs>
</svg>
